<svg id="layer" height="512" viewBox="0 0 60 60" width="512" xmlns="http://www.w3.org/2000/svg"><path d="m59 45.84h-9.52v-9.31l5.01-2.46a2.92364 2.92364 0 0 0 1.07-4.37l-6.27-8.54a.97237.97237 0 0 0 -.34-.3l-7.63-3.38a1.00269 1.00269 0 0 0 -.82 1.83l5.62 2.49-16.06 7.88-16.05-7.87 5.61-2.5a.99608.99608 0 1 0 -.81-1.82l-7.61 3.36a1.33087 1.33087 0 0 0 -.4.37l-6.24 8.48a2.9477 2.9477 0 0 0 -.48 2.44 2.88969 2.88969 0 0 0 1.56 1.93l5.01 2.46v9.31h-9.65a1 1 0 0 0 0 2h9.91a2.90412 2.90412 0 0 0 1.39 1.44l16.48 8.1a2.99342 2.99342 0 0 0 1.28.29 3.082 3.082 0 0 0 1.3-.29l16.48-8.1a2.86153 2.86153 0 0 0 1.39-1.44h9.77a1 1 0 0 0 0-2zm-52.48-13.56a.94423.94423 0 0 1 -.5-.62006.89172.89172 0 0 1 .16-.77l5.77-7.87 16.6 8.15-5.98 8.13006a.92214.92214 0 0 1 -1.16.29zm40.96 14.46a.92755.92755 0 0 1 -.52.74l-16.47 8.1a.93174.93174 0 0 1 -.83 0l-16.48-8.1a.9707.9707 0 0 1 -.53-.83v-9.14l7.88 3.87a2.84705 2.84705 0 0 0 1.29.31 2.95572 2.95572 0 0 0 2.37-1.2l5.88-8 5.87 8a2.95574 2.95574 0 0 0 2.37 1.2 2.87788 2.87788 0 0 0 1.29-.31l7.88-3.87zm-8.76-7.15a.93531.93531 0 0 1 -1.17-.29l-5.97-8.13 16.59-8.15 5.78 7.87a.89177.89177 0 0 1 .16.77.94426.94426 0 0 1 -.5.62006zm-8.72-22.61734a4.55538 4.55538 0 0 1 -4.1582-6.27344 1.00025 1.00025 0 0 1 1.83789.79 2.51367 2.51367 0 1 0 2.03125-1.53272 1.00065 1.00065 0 0 1 -.23438-1.98633 4.51646 4.51646 0 1 1 .52344 9.00249zm0 9.98734a.99974.99974 0 0 1 -.89453-.55322l-2.13477-4.2749a10.13678 10.13678 0 0 1 -3.72949-17.22465 10.13372 10.13372 0 0 1 16.81152 6.25341 10.14266 10.14266 0 0 1 -7.02441 10.97168l-2.13379 4.27442a.99974.99974 0 0 1 -.89453.55326zm-.00977-22.63676a8.04148 8.04148 0 0 0 -5.41503 2.07376 8.13728 8.13728 0 0 0 3.05859 13.84668 1.79592 1.79592 0 0 1 1.084.90918l1.28221 2.56833 1.28223-2.56885a1.80274 1.80274 0 0 1 1.084-.90869 8.1476 8.1476 0 0 0 5.70215-8.83594 8.159 8.159 0 0 0 -7.13867-7.03222 8.47785 8.47785 0 0 0 -.93948-.05225z"/></svg>