<svg id="Capa_1" enable-background="new 0 0 512 512" height="512" viewBox="0 0 512 512" width="512" xmlns="http://www.w3.org/2000/svg"><g><g><circle cx="344.5" cy="327.815" r="7.5"/><circle cx="370.5" cy="327.815" r="7.5"/><circle cx="396.5" cy="327.815" r="7.5"/><circle cx="422.5" cy="327.815" r="7.5"/><circle cx="448.5" cy="327.815" r="7.5"/><circle cx="378.5" cy="351.815" r="7.5"/><circle cx="404.5" cy="351.815" r="7.5"/><circle cx="430.5" cy="351.815" r="7.5"/><circle cx="456.5" cy="351.815" r="7.5"/><path d="m12.5 271.562h136.411c6.893 0 12.5-5.607 12.5-12.5v-26.062c0-4.142-3.358-7.5-7.5-7.5s-7.5 3.358-7.5 7.5v23.562h-21.411v-80.615h21.411v22.053c0 4.142 3.358 7.5 7.5 7.5s7.5-3.358 7.5-7.5v-24.554c0-6.893-5.607-12.5-12.5-12.5h-136.411c-6.893 0-12.5 5.607-12.5 12.5v85.615c0 6.893 5.607 12.501 12.5 12.501zm73-95.616h24.5v69.276l-24.5-25.894zm-70.5 0h55.5v38.868h-55.5zm0 53.868h59.771l25.307 26.747h-85.078z"/><path d="m499.5 160.946h-136.411c-6.893 0-12.5 5.607-12.5 12.5v85.615c0 6.893 5.607 12.5 12.5 12.5h136.411c6.893 0 12.5-5.607 12.5-12.5v-85.615c0-6.892-5.607-12.5-12.5-12.5zm-133.911 15h58.911v36.284l-58.911 38.057zm131.411 80.616h-113.479l50.691-32.747h62.788zm0-47.748h-57.5v-32.868h57.5z"/><path d="m500.634 379.872-19.373-70.518c-2.675-9.738-11.597-16.54-21.696-16.54h-143.63c10.234-3.055 17.716-12.552 17.716-23.766v-5.808c0-7.123-3.127-13.907-8.376-18.571v-39.174c0-24.564-19.984-44.549-44.549-44.549h-49.454c-24.564 0-44.549 19.984-44.549 44.549v39.174c-5.249 4.664-8.376 11.448-8.376 18.571v5.808c0 11.214 7.483 20.712 17.717 23.766h-143.629c-10.099 0-19.021 6.801-21.696 16.54l-19.373 70.518c-6.363.576-11.366 5.933-11.366 12.442v38c0 6.893 5.607 12.5 12.5 12.5h122.57l-2.328 13.39c-.821 4.724.478 9.538 3.564 13.207 3.087 3.67 7.607 5.774 12.402 5.774h214.584c4.795 0 9.315-2.104 12.402-5.774 3.086-3.669 4.385-8.483 3.564-13.207l-2.328-13.39h122.57c6.893 0 12.5-5.607 12.5-12.5v-38c0-6.509-5.003-11.866-11.366-12.442zm-33.837-66.544 18.265 66.487h-119.085l-1.831-10.531c-.857-4.928-2.659-9.534-5.204-13.642.668-1.122 1.059-2.427 1.059-3.827 0-4.142-3.358-7.5-7.5-7.5-1.174 0-2.28.277-3.27.758-3.193-2.374-6.77-4.286-10.662-5.596l-40.131-13.504-8.167-7.564c-.475-.44-.986-.829-1.518-1.183 5.011-2.196 9.444-5.434 13.05-9.411h157.763c3.366-.001 6.339 2.267 7.231 5.513zm-265.073-107.833c0-16.293 13.256-29.549 29.549-29.549h49.454c16.293 0 29.549 13.255 29.549 29.549v38.806l-12.675 8.06c-7.994 5.083-14.668 12.138-19.301 20.401l-3.963 7.069c-.442.788-1.278 1.278-2.181 1.278h-32.926c-.859 0-1.648-.433-2.109-1.158l-6.325-9.938c-4.172-6.557-9.537-12.114-15.943-16.517l-13.129-9.022zm-8.376 57.745c0-1.914.558-3.718 1.544-5.261l11.465 7.879c4.735 3.254 8.7 7.361 11.784 12.208l6.324 9.938c3.229 5.075 8.749 8.104 14.764 8.104h32.926c6.322 0 12.171-3.426 15.265-8.942l3.963-7.069c3.424-6.107 8.357-11.322 14.266-15.079l11.344-7.213c1.058 1.58 1.658 3.449 1.658 5.435v5.808c0 5.402-4.395 9.797-9.797 9.797h-4.875c-3.742 0-6.912 2.759-7.428 6.465-1.227 8.81-7.499 16.267-15.976 18.999-4.88 1.571-8.256 5.88-8.653 10.902h-31.845c-.397-5.022-3.773-9.331-8.651-10.902-8.479-2.732-14.75-10.189-15.977-18.999-.516-3.707-3.686-6.466-7.428-6.466h-4.875c-5.402 0-9.797-4.395-9.797-9.797v-5.807zm-148.145 50.088c.892-3.246 3.866-5.513 7.232-5.513h157.772c3.496 3.855 7.767 7.017 12.591 9.207-.805.496-1.561 1.076-2.231 1.754l-7.168 7.252-39.966 13.449c-13.362 4.497-23.163 15.918-25.578 29.808l-1.831 10.53h-119.087zm-30.203 114.486v-33h128.416l-1.565 9h-108.851c-4.142 0-7.5 3.358-7.5 7.5s3.358 7.5 7.5 7.5h106.243l-1.565 9zm349.215 31.942c-.165.196-.459.43-.923.43h-26.56v-44.586c0-16.103-13.1-29.203-29.203-29.203h-12.529c-4.142 0-7.5 3.358-7.5 7.5s3.358 7.5 7.5 7.5h12.53c7.832 0 14.203 6.371 14.203 14.203v44.586h-131.465v-44.586c0-7.832 6.371-14.203 14.203-14.203h55.529c4.142 0 7.5-3.358 7.5-7.5s-3.358-7.5-7.5-7.5h-55.529c-16.103 0-29.203 13.1-29.203 29.203v44.586h-26.56c-.464 0-.758-.234-.923-.43s-.345-.525-.265-.982l15.113-86.92c1.472-8.462 7.443-15.421 15.583-18.16l41.655-14.017c1.111-.374 2.118-1.003 2.942-1.836l7.539-7.628h50.586l8.485 7.858c.778.721 1.699 1.268 2.704 1.606l41.656 14.017c8.141 2.739 14.111 9.698 15.583 18.16l15.113 86.92c.081.456-.099.786-.264.982zm132.785-31.942h-122.678l-1.565-9h106.243c4.142 0 7.5-3.358 7.5-7.5s-3.358-7.5-7.5-7.5h-108.851l-1.565-9h128.416z"/><path d="m65 334.814h64c4.142 0 7.5-3.358 7.5-7.5s-3.358-7.5-7.5-7.5h-64c-4.142 0-7.5 3.358-7.5 7.5s3.358 7.5 7.5 7.5z"/><path d="m152 334.814h18c4.142 0 7.5-3.358 7.5-7.5s-3.358-7.5-7.5-7.5h-18c-4.142 0-7.5 3.358-7.5 7.5s3.358 7.5 7.5 7.5z"/><path d="m61 358.814h64c4.142 0 7.5-3.358 7.5-7.5s-3.358-7.5-7.5-7.5h-64c-4.142 0-7.5 3.358-7.5 7.5s3.358 7.5 7.5 7.5z"/><path d="m499.5 36.814h-20.5c-4.142 0-7.5 3.358-7.5 7.5s3.358 7.5 7.5 7.5h18v43h-131.411v-43h78.411c4.142 0 7.5-3.358 7.5-7.5s-3.358-7.5-7.5-7.5h-80.911c-6.893 0-12.5 5.607-12.5 12.5v85.615c0 6.893 5.607 12.5 12.5 12.5h136.411c6.893 0 12.5-5.607 12.5-12.5v-85.615c0-6.892-5.607-12.5-12.5-12.5zm-2.5 95.616h-131.411v-22.615h131.411z"/><path d="m12.5 147.43h136.411c6.893 0 12.5-5.607 12.5-12.5v-85.616c0-6.893-5.607-12.5-12.5-12.5h-136.411c-6.893 0-12.5 5.607-12.5 12.5v85.615c0 6.893 5.607 12.501 12.5 12.501zm118.456-95.616h15.455v41h-15.455zm-28.5 0h13.5v41h-13.5zm-28.5 0h13.5v41h-13.5zm-28.5 0h13.5v41h-13.5zm-30.456 0h15.456v41h-15.456zm0 56h131.411v24.615h-131.411z"/><path d="m187.794 147.43h136.411c6.893 0 12.5-5.607 12.5-12.5v-85.616c0-6.893-5.607-12.5-12.5-12.5h-136.411c-6.893 0-12.5 5.607-12.5 12.5v85.615c0 6.893 5.608 12.501 12.5 12.501zm107.001-95.616h26.911v70.009l-26.911-26.911zm-104.501 0h89.5v38.706h-89.5zm0 53.706h93.894l26.91 26.91h-120.804z"/></g></g></svg>