<svg height="512pt" viewBox="0 0 512 512" width="512pt" xmlns="http://www.w3.org/2000/svg"><path d="m448 471.902344c-35.347656 0-64-28.652344-64-64 0-35.34375 28.652344-64 64-64s64 28.65625 64 64c-.039062 35.332031-28.671875 63.960937-64 64zm0-112c-26.507812 0-48 21.492187-48 48 0 26.511718 21.492188 48 48 48s48-21.488282 48-48c-.03125-26.496094-21.503906-47.96875-48-48zm0 0"/><path d="m512 407.902344h-16v-304c0-26.507813-21.492188-48-48-48s-48 21.492187-48 48v304h-16v-304c0-35.34375 28.652344-64 64-64s64 28.65625 64 64zm0 0"/><path d="m448 439.902344c-17.671875 0-32-14.324219-32-32 0-17.671875 14.328125-32 32-32s32 14.328125 32 32c0 17.675781-14.328125 32-32 32zm0-48c-8.835938 0-16 7.164062-16 16 0 8.839844 7.164062 16 16 16s16-7.160156 16-16c0-8.835938-7.164062-16-16-16zm0 0"/><path d="m40 471.902344h-32c-4.417969 0-8-3.578125-8-8v-352c0-4.417969 3.582031-8 8-8h208v16h-200v336h24zm0 0"/><path d="m256 423.902344h144v16h-144zm0 0"/><path d="m48 191.902344h-16v-48c0-4.417969 3.582031-8 8-8h144v16h-136zm0 0"/><path d="m328 511.902344h-288c-4.417969 0-8-3.578125-8-8v-288c0-3.234375 1.949219-6.148438 4.9375-7.386719s6.429688-.554687 8.71875 1.734375l288 288c2.285156 2.285156 2.972656 5.726562 1.734375 8.714844-1.238281 2.988281-4.15625 4.9375-7.390625 4.9375zm-280-16h260.6875l-260.6875-260.6875zm0 0"/><path d="m288 455.902344h160v16h-160zm0 0"/><path d="m232 471.902344h-152c-4.417969 0-8-3.578125-8-8v-152c0-3.234375 1.949219-6.148438 4.9375-7.386719s6.429688-.554687 8.71875 1.734375l152 152c2.285156 2.285156 2.972656 5.726562 1.734375 8.714844-1.238281 2.988281-4.15625 4.9375-7.390625 4.9375zm-144-16h124.6875l-124.6875-124.6875zm0 0"/><path d="m80 423.902344h120v16h-120zm0 0"/><path d="m173.894531 232.503906c-3.457031 0-6.523437-2.226562-7.597656-5.511718l-5.167969-15.769532-8.800781-9-15.417969-5.238281c-2.601562-.882813-4.570312-3.042969-5.210937-5.71875-.636719-2.675781.144531-5.492187 2.070312-7.457031l178.078125-181.503906c3.1875-3.074219 8.234375-3.074219 11.425782 0l34.398437 35.09375c3.050781 3.113281 3.050781 8.089843 0 11.203124l-178.0625 181.503907c-1.503906 1.535156-3.5625 2.398437-5.714844 2.398437zm-19.816406-46.574218 5.167969 1.757812c1.191406.402344 2.265625 1.082031 3.144531 1.976562l11.480469 11.695313c.859375.878906 1.507812 1.945313 1.890625 3.113281l1.644531 5.03125 163.394531-166.503906-23.199219-23.671875zm0 0"/><path d="m116.496094 255.902344c-2.644532 0-5.117188-1.304688-6.609375-3.492188-1.488281-2.183594-1.804688-4.964844-.839844-7.425781l22.960937-58.496094 14.886719 5.839844-16.140625 41.121094 40.109375-16.34375 6.058594 14.796875-57.402344 23.410156c-.960937.390625-1.988281.589844-3.023437.589844zm0 0"/><path d="m277.417969 48.605469 11.421875-11.207031 34.433594 35.09375-11.421876 11.207031zm0 0"/><path d="m260.199219 66.152344 11.421875-11.207032 34.433594 35.097657-11.417969 11.203125zm0 0"/><path d="m256 335.902344h-16v-24c-.007812-4.25 3.3125-7.765625 7.558594-8l29.320312-1.597656c2.449219-8.339844 5.800782-16.386719 9.992188-24l-19.632813-21.90625c-2.835937-3.164063-2.703125-7.996094.304688-11l33.914062-33.917969c3-3.003907 7.828125-3.136719 10.992188-.304688l21.949219 19.609375c7.613281-4.199218 15.660156-7.554687 24-10l1.601562-29.320312c.234375-4.246094 3.746094-7.566406 8-7.5625h24v16h-16.425781l-1.511719 27.5625c-.191406 3.535156-2.6875 6.523437-6.132812 7.34375-10.742188 2.5625-21.003907 6.828125-30.402344 12.632812-3.015625 1.851563-6.890625 1.5-9.527344-.863281l-20.601562-18.464844-23.199219 23.199219 18.480469 20.589844c2.359374 2.640625 2.703124 6.515625.847656 9.53125-5.800782 9.394531-10.066406 19.65625-12.632813 30.398437-.820312 3.441407-3.808593 5.933594-7.34375 6.128907l-27.550781 1.511718zm0 0"/><path d="m328 335.902344h-16c.054688-44.160156 35.839844-79.945313 80-80v16c-35.328125.042968-63.960938 28.671875-64 64zm0 0"/><path d="m160 327.902344h232v16h-232zm0 0"/><path d="m352 359.902344h16v16h-16zm0 0"/><path d="m320 359.902344h16v16h-16zm0 0"/><path d="m288 359.902344h16v16h-16zm0 0"/><path d="m264 391.902344h104v16h-104zm0 0"/><path d="m208 335.902344h-16v-24c0-4.417969-3.582031-8-8-8h-8c-13.253906 0-24-10.742188-24-24 0-13.253906 10.746094-24 24-24h40c4.417969 0 8-3.578125 8-8v-16h16v16c0 13.257812-10.746094 24-24 24h-40c-4.417969 0-8 3.582031-8 8 0 4.421875 3.582031 8 8 8h8c13.253906 0 24 10.746094 24 24zm0 0"/><path d="m224 199.902344h16v16h-16zm0 0"/><path d="m288 103.902344h104v16h-104zm0 0"/><path d="m256 135.902344h136v16h-136zm0 0"/></svg>