<svg height="512" viewBox="0 0 60 60" width="512" xmlns="http://www.w3.org/2000/svg"><g id="Page-1" fill="none" fill-rule="evenodd"><g id="046---Defence" fill="rgb(0,0,0)" fill-rule="nonzero"><path id="Shape" d="m58.154 11.963c-3.074-.234-18.806-1.878-26.627-11.252-.3774381-.45294069-.9374174-.71367765-1.527-.711-.5891118-.00152673-1.1484979.25856763-1.527.71-3.237 3.89-8.173 6.89-14.667 8.932-3.89074457 1.2047361-7.90100083 1.9826454-11.96 2.32-1.05292937.0812059-1.86127146.9670542-1.846 2.023.294 16.259 8.142 38.034 29.29 45.888.4582948.1706591.9627052.1706591 1.421 0 21.147-7.855 29-29.629 29.289-45.887.0152715-1.0559458-.7930706-1.9417941-1.846-2.023zm-28.168 46.037c-20.205-7.506-27.704-28.421-27.986-44.044 4.21007653-.3493339 8.369594-1.1560891 12.405-2.406 6.868-2.159 12.118-5.376 15.586-9.559 8.333 9.989 24.788 11.72 28.009 11.966-.285 15.629-7.785 36.543-28.014 44.043z"/><path id="Shape" d="m6.2 17.5c3.18763623-.4619729 6.333768-1.1751941 9.409-2.133 2.7122047-.8396119 5.3434568-1.9212968 7.862-3.232.488772-.257917.675917-.863228.418-1.352s-.863228-.675917-1.352-.418c-2.4106955 1.2559237-4.9299368 2.2914667-7.527 3.094-2.974364.9258955-6.0171364 1.6157021-9.1 2.063-1.04879164.1547953-1.79458394 1.1010742-1.7 2.157.39219865 4.3091951 1.30208692 8.5554523 2.71 12.647.1873027.511211.7491502.7786457 1.26402599.6016656.51487579-.17698.79355976-.7333335.62697401-1.2516656-1.35574639-3.9391966-2.23238545-8.027269-2.611-12.176z"/><path id="Shape" d="m36.533 12.134c2.5198376 1.3113793 5.1528419 2.3927618 7.867 3.231 3.0717885.9597034 6.2150285 1.6736202 9.4 2.135-.3771522 4.1497501-1.253137 8.2389105-2.609 12.179-.1245587.3399618-.0556284.7206985.1802137.9954118.2358421.2747132.6017547.4004897.9566553.3288344.3549006-.0716552.6433494-.3295488.754131-.6742462 1.410949-4.0924941 2.323529-8.340121 2.718-12.651.0945839-1.0559258-.6512084-2.0022047-1.7-2.157-3.0829214-.4474613-6.125707-1.1376053-9.1-2.064-2.5969942-.802309-5.1162258-1.8375134-7.527-3.093-.488772-.2579169-1.094083-.070772-1.352.418-.2579169.488772-.070772 1.094083.418 1.352z"/><path id="Shape" d="m27.938 9.2c-1.3137132 2.392134-1.9816426 5.0852196-1.938 7.814v4.38l-.894.447c-.6797737.335987-1.108902 1.0297315-1.106 1.788v1.808l-10 5.829v-1.266c0-.5522847-.4477153-1-1-1s-1 .4477153-1 1v8c-.0016568.5522847.4447153 1.0013431.997 1.003.5522847.0016568 1.0013431-.4447153 1.003-.997h10v1.517l-4.251 3.4c-.4740556.3789234-.7497405.9531136-.749 1.56v1.517c0 1.1045695.8954305 2 2 2h5.279l.317.948c.4079831 1.2249299 1.553914 2.0514501 2.845 2.052h1.118c1.2893481-.0021256 2.4331374-.8278601 2.841-2.051l.321-.949h5.279c1.1045695 0 2-.8954305 2-2v-1.517c.0010119-.6079588-.2755277-1.1831319-.751-1.562l-4.249-3.398v-1.517h10c.0010718.3572656.1926611.6868208.5025981.8645254s.6911348.176561 1-.003.4984737-.5102598.4974019-.8675254v-8c0-.5522847-.4477153-1-1-1s-1 .4477153-1 1v1.266l-10-5.829v-1.808c.0037919-.7568582-.4227253-1.4501425-1.1-1.788l-.9-.441v-4.386c.0443651-2.7307694-.6235768-5.4259738-1.938-7.82-.4236957-.73883067-1.2103024-1.19450899-2.062-1.19450899s-1.6383043.45567832-2.062 1.19450899zm4.062 7.814v4.386c-.0035548.7567917.4228916 1.4499608 1.1 1.788l.9.446v6.366c0 .5522847.4477153 1 1 1s1-.4477153 1-1v-2.248l10 5.829v2.425h-10v-2.006c0-.5522847-.4477153-1-1-1s-1 .4477153-1 1v6c.000129.3039469.1384884.5913371.376.781l4.624 3.702v1.517h-6c-.4302393.0003267-.8120445.2758064-.948.684l-.544 1.631c-.1360719.4085428-.5183926.6841037-.949.684h-1.118c-.4306074.0001037-.8129281-.2754572-.949-.684l-.544-1.631c-.1359555-.4081936-.5177607-.6836733-.948-.684h-6v-1.517l4.625-3.7c.2376854-.1902992.3757225-.4785207.375-.783v-6c0-.5522847-.4477153-1-1-1s-1 .4477153-1 1v2.006h-10v-2.425l10-5.829v2.248c0 .5522847.4477153 1 1 1s1-.4477153 1-1v-6.37l.894-.447c.6778213-.335556 1.1065196-1.0266672 1.106-1.783v-4.386c-.0446652-2.3834683.533376-4.7373403 1.677-6.829.0674313-.1143232.1902718-.1844849.323-.1844849s.2555687.0701617.323.1844849c1.1433635 2.0917609 1.7213875 4.4455627 1.677 6.829z"/></g></g></svg>