<?xml version="1.0" encoding="UTF-8" standalone="no"?>
<!-- Created with Inkscape (http://www.inkscape.org/) -->

<svg
   version="1.1"
   id="svg2760"
   xml:space="preserve"
   width="682.66669"
   height="682.66669"
   viewBox="0 0 682.66669 682.66669"
   xmlns="http://www.w3.org/2000/svg"
   xmlns:svg="http://www.w3.org/2000/svg"><defs
     id="defs2764"><clipPath
       clipPathUnits="userSpaceOnUse"
       id="clipPath2774"><path
         d="M 0,512 H 512 V 0 H 0 Z"
         id="path2772" /></clipPath></defs><g
     id="g2766"
     transform="matrix(1.3333333,0,0,-1.3333333,0,682.66667)"><g
       id="g2768"><g
         id="g2770"
         clip-path="url(#clipPath2774)"><g
           id="g2776"
           transform="translate(22.043,7.5)"><path
             d="m 0,0 h 467.887 c 8.021,0 14.57,6.549 14.57,14.57 v 11.057 c 0,7.992 -6.549,14.568 -14.57,14.568 H 0 c -7.994,0 -14.543,-6.576 -14.543,-14.568 V 14.57 C -14.543,6.549 -7.994,0 0,0 Z"
             style="fill:none;stroke:#000000;stroke-width:14.995;stroke-linecap:round;stroke-linejoin:round;stroke-miterlimit:10;stroke-dasharray:none;stroke-opacity:1"
             id="path2778" /></g><g
           id="g2780"
           transform="translate(124.459,312.7637)"><path
             d="m 0,0 h -70.867 c -7.994,0 -14.541,-6.547 -14.541,-14.57 V -30.473 H 348.49 V -14.57 C 348.49,-6.547 341.943,0 333.92,0 h -70.865"
             style="fill:none;stroke:#000000;stroke-width:14.995;stroke-linecap:round;stroke-linejoin:round;stroke-miterlimit:10;stroke-dasharray:none;stroke-opacity:1"
             id="path2782" /></g><g
           id="g2784"
           transform="translate(22.043,222.707)"><path
             d="m 0,0 h 467.887 c 8.021,0 14.57,6.549 14.57,14.57 v 30.473 c 0,7.994 -6.549,14.541 -14.57,14.541 H 0 c -7.994,0 -14.543,-6.547 -14.543,-14.541 V 14.57 C -14.543,6.549 -7.994,0 0,0 Z"
             style="fill:none;stroke:#000000;stroke-width:14.995;stroke-linecap:round;stroke-linejoin:round;stroke-miterlimit:10;stroke-dasharray:none;stroke-opacity:1"
             id="path2786" /></g><g
           id="g2788"
           transform="translate(181.5762,394.9121)"><path
             d="m 0,0 c 21.316,14.145 46.914,22.365 74.41,22.365 74.551,0 134.986,-60.435 134.986,-134.986 H -60.576 c 0,34.838 13.209,66.586 34.867,90.51"
             style="fill:none;stroke:#000000;stroke-width:14.995;stroke-linecap:round;stroke-linejoin:round;stroke-miterlimit:10;stroke-dasharray:none;stroke-opacity:1"
             id="path2790" /></g><g
           id="g2792"
           transform="translate(22.043,152.1816)"><path
             d="M 0,0 V 70.525 H 467.887 V -104.486 H 0 v 70.527"
             style="fill:none;stroke:#000000;stroke-width:14.995;stroke-linecap:round;stroke-linejoin:round;stroke-miterlimit:10;stroke-dasharray:none;stroke-opacity:1"
             id="path2794" /></g><g
           id="g2796"
           transform="translate(255.9863,417.2773)"><path
             d="M 0,0 V 87.223"
             style="fill:none;stroke:#000000;stroke-width:14.995;stroke-linecap:round;stroke-linejoin:round;stroke-miterlimit:10;stroke-dasharray:none;stroke-opacity:1"
             id="path2798" /></g><g
           id="g2800"
           transform="translate(255.9863,504.5)"><path
             d="M 0,0 H 89.914 L 74.211,-26.023 89.914,-52.072 H 0 Z"
             style="fill:none;stroke:#000000;stroke-width:14.995;stroke-linecap:round;stroke-linejoin:round;stroke-miterlimit:10;stroke-dasharray:none;stroke-opacity:1"
             id="path2802" /></g><g
           id="g2804"
           transform="translate(228.8008,47.6953)"><path
             d="m 0,0 v 100.943 c 0,17.092 -13.975,31.067 -31.039,31.067 -17.092,0 -31.066,-13.975 -31.066,-31.067 L -62.105,0 Z m 110.666,0 v 100.943 c 0,17.092 -13.975,31.067 -31.068,31.067 -17.065,0 -31.039,-13.975 -31.039,-31.067 V 0 Z M 221.33,0 v 100.943 c 0,17.092 -13.975,31.067 -31.068,31.067 -17.065,0 -31.067,-13.975 -31.067,-31.067 L 159.195,0 Z m -331.965,0 v 100.943 c 0,17.092 -14.004,31.067 -31.068,31.067 -17.094,0 -31.068,-13.975 -31.068,-31.067 V 0 Z"
             style="fill:none;stroke:#000000;stroke-width:14.995;stroke-linecap:round;stroke-linejoin:round;stroke-miterlimit:10;stroke-dasharray:none;stroke-opacity:1"
             id="path2806" /></g></g></g></g></svg>
