<svg height="512pt" viewBox="-13 0 512 512.001" width="512pt" xmlns="http://www.w3.org/2000/svg"><path d="m174.234375 318.445312h-30.023437c-9.351563 0-16.960938-7.605468-16.960938-16.960937v-16.734375c0-.988281-.699219-1.84375-1.734375-2.128906-10.410156-2.835938-20.449219-7.007813-29.835937-12.394532-.851563-.488281-1.855469-.390624-2.492188.246094l-11.953125 11.953125c-3.203125 3.203125-7.460937 4.964844-11.992187 4.964844-4.527344 0-8.789063-1.761719-11.992188-4.964844l-21.230469-21.230469c-3.203125-3.203124-4.96875-7.464843-4.96875-11.992187 0-4.53125 1.765625-8.792969 4.96875-11.992187l11.949219-11.953126c.640625-.636718.738281-1.640624.246094-2.492187-5.382813-9.386719-9.554688-19.425781-12.390625-29.835937-.285157-1.035157-1.140625-1.734376-2.128907-1.734376h-16.734374c-9.351563 0-16.960938-7.609374-16.960938-16.960937v-30.023437c0-9.351563 7.609375-16.960938 16.960938-16.960938h16.734374c.988282 0 1.84375-.695312 2.128907-1.734375 2.835937-10.40625 7.007812-20.445313 12.394531-29.835937.488281-.851563.390625-1.855469-.246094-2.492188l-11.953125-11.953125c-3.203125-3.199219-4.96875-7.460937-4.96875-11.992187 0-4.527344 1.765625-8.789063 4.96875-11.992188l21.230469-21.230469c3.203125-3.203125 7.460938-4.964843 11.992188-4.964843s8.792968 1.761718 11.996093 4.96875l11.949219 11.949218c.636719.636719 1.636719.734375 2.492188.246094 9.386718-5.386719 19.421874-9.554688 29.832031-12.394531 1.042969-.285157 1.738281-1.140625 1.738281-2.128907v-16.734374c0-9.351563 7.609375-16.960938 16.960938-16.960938h30.023437c9.351563 0 16.960937 7.609375 16.960937 16.960938v16.734374c0 .988282.695313 1.84375 1.734376 2.125 10.40625 2.839844 20.445312 7.011719 29.832031 12.398438.855469.488281 1.855469.390625 2.496093-.246094l11.949219-11.953125c6.628907-6.625 17.359375-6.628906 23.988281.003907l2.246094 2.246093c7.011719 7.007813-3.585937 17.625-10.605468 10.605469-1.382813-1.195312-3.15625-4.113281-5.019532-2.246094l-11.953125 11.949219c-5.40625 5.40625-13.863281 6.496094-20.566406 2.648437-8.28125-4.75-17.136719-8.429687-26.3125-10.933593-7.53125-2.050781-12.792969-8.878907-12.792969-16.601563v-16.730468c0-1.082032-.878906-1.960938-1.960937-1.960938h-30.023438c-1.078125 0-1.957031.878906-1.957031 1.960938v16.734374c0 7.722657-5.261719 14.546876-12.792969 16.601563-9.179687 2.503906-18.035156 6.179687-26.316406 10.929687-6.699219 3.847657-15.15625 2.757813-20.5625-2.648437l-11.949219-11.949219c-.476562-.476562-1.015625-.574218-1.386718-.574218-.371094 0-.910157.097656-1.382813.574218l-21.234375 21.230469c-.472656.472656-.574219 1.015625-.574219 1.382813 0 .371093.101563.914062.574219 1.386718l11.953125 11.953125c5.40625 5.40625 6.496094 13.859375 2.648437 20.5625-4.75 8.285157-8.429687 17.136719-10.933593 26.316407-2.050781 7.53125-8.878907 12.789062-16.597657 12.789062h-16.734374c-1.082032 0-1.960938.882812-1.960938 1.960938v30.023437c0 1.082031.878906 1.960937 1.960938 1.960937h16.734374c7.71875 0 14.546876 5.257813 16.601563 12.789063 2.5 9.183594 6.179687 18.035156 10.929687 26.316406 3.847657 6.703125 2.757813 15.15625-2.648437 20.5625l-11.949219 11.953125c-.476562.472656-.574218 1.015625-.574218 1.386719 0 .367187.101562.910156.574218 1.386719l21.230469 21.226562c.765625.765625 2.007813.769532 2.773437 0l11.949219-11.949218c5.40625-5.40625 13.863281-6.496094 20.566407-2.648438 8.28125 4.75 17.132812 8.429688 26.3125 10.933594 7.53125 2.050781 12.792968 8.878906 12.792968 16.601562v16.730469c0 1.082031.878906 1.960937 1.957032 1.960937h30.023437c1.082031 0 1.960937-.878906 1.960937-1.960937v-16.730469c0-7.722656 5.261719-14.550781 12.792969-16.601562 9.582031-2.609375 13.511719 11.863281 3.945313 14.46875-1.039063.285156-1.738282 1.140625-1.738282 2.132812v16.730469c0 9.351563-7.609374 16.960937-16.960937 16.960937zm0 0"/><path d="m88.535156 159.222656c0-49.59375 49.867188-83.589844 95.820313-66.082031 9.261719 3.535156 3.9375 17.554687-5.34375 14.019531-36.265625-13.824218-75.480469 13.097656-75.480469 52.0625 0 31.695313 26.695312 57.484375 59.015625 55.589844 9.882813-.597656 10.808594 14.390625.882813 14.976562-40.753907 2.398438-74.894532-30.101562-74.894532-70.566406zm0 0"/><path d="m415.039062 333.050781-75.992187-14.777343v-18.777344c21.339844-14.558594 32.894531-35.175782 35.410156-58.332032 11.078125-.878906 19.820313-10.171874 19.820313-21.46875v-15.414062c18.058594-7.851562 15.621094-34.207031-3.484375-38.652344v-5.949218c0-53.488282-43.363281-96.851563-96.847657-96.851563h-8.121093c-53.488281 0-96.847657 43.363281-96.847657 96.847656v5.953125c-19.097656 4.441406-21.550781 30.800782-3.484374 38.652344v15.414062c0 11.296876 8.742187 20.589844 19.820312 21.46875 2.195312 20.203126 11.664062 38.695313 26.601562 51.554688 2.859376 2.464844 5.796876 4.722656 8.808594 6.777344v18.777344l-75.992187 14.777343c-40.09375 7.796875-71.34375 30.398438-71.34375 72.101563v76.285156c0 16.878906 13.683593 30.5625 30.5625 30.5625h331.871093c16.878907 0 30.5625-13.683594 30.5625-30.5625v-76.285156c0-41.566406-31.058593-64.269532-71.34375-72.101563zm-62.425781 3.140625c-5.445312 7.917969-13.769531 20.003906-22.761719 33.019532-3.664062 5.308593-10.238281 5.984374-12.808593 4.445312l-11.847657-7.105469c11.554688-6.824219 27.542969-18.542969 32.394532-33.28125zm-62.730469 21.613282c-11.390624-5.734376-34.097656-19.902344-34.160156-33.292969 0-.019531 0-.039063 0-.058594v-16.675781c21.828125 9.414062 46.46875 9.425781 68.324219 0v16.675781c0 13.414063-22.761719 27.613281-34.164063 33.351563zm-85.90625-198.128907c0-30.765625 17.0625-57.621093 42.222657-71.597656v9.402344c0 9.914062 15 9.929687 15 0v-15.867188c6.730469-2.128906 13.832031-3.40625 21.183593-3.710937v37.085937c0 9.914063 15 9.929688 15 0v-37.085937c7.351563.304687 14.457032 1.582031 21.1875 3.710937v15.867188c0 9.914062 15 9.929687 15 0v-9.402344c25.160157 13.976563 42.222657 40.832031 42.222657 71.597656v5.421875h-171.816407zm-10.367187 20.421875h192.550781c7.1875 0 7.179688 10.863282 0 10.863282h-192.550781c-7.191406 0-7.183594-10.863282 0-10.863282zm26.226563 53.472656c-.085938-4.078124-3.417969-7.339843-7.5-7.339843-1.25-.308594-11.847657 1.949219-11.847657-6.535157v-13.730468h178.789063v13.730468c0 8.46875-10.878906 6.296876-11.847656 6.535157-4.078126 0-7.410157 3.261719-7.5 7.339843-.402344 18.75-8.371094 36.164063-21.859376 47.78125-28.644531 24.664063-67.726562 24.667969-96.371093 0-13.492188-11.617187-21.460938-29.03125-21.863281-47.78125zm22.339843 99.699219c4.855469 14.738281 20.839844 26.457031 32.398438 33.28125-11.875 6.359375-11.035157 8.261719-16.429688 7.625-3.355469-.402343-6.367187-2.269531-8.289062-5.050781-8.96875-12.984375-17.265625-25.035156-22.703125-32.933594zm-86.535156 163.730469h-31.695313c-8.59375 0-15.5625-6.96875-15.5625-15.5625v-76.285156c0-22.476563 10.210938-38.015625 32.609376-48.75.90625 3.992187 14.648437 41.292968 14.648437 93.414062zm126.742187 0h-111.742187v-47.183594c0-56.472656-14.257813-92.835937-15.660156-98.992187 8.757812-2.910157 2.253906-.667969 56.117187-11.511719 15.480469 22.496094 44.371094 64.46875 61.402344 88.675781 6.46875 9.191407 9.882812 19.988281 9.882812 31.226563zm7.5-69.152344c-1.492187-2.925781-3.199218-5.761718-5.113281-8.488281-5.757812-8.179687-13.230469-18.914063-21.027343-30.167969 2.316406-.511718 4.578124-1.402344 6.699218-2.671875l19.441406-11.660156 19.445313 11.660156c2.117187 1.269531 4.382813 2.160157 6.699219 2.671875-7.796875 11.246094-15.269532 21.980469-21.027344 30.167969-1.917969 2.726563-3.625 5.5625-5.117188 8.488281zm181.5 53.589844c0 8.59375-6.964843 15.5625-15.5625 15.5625h-31.695312v-28.296875c0-9.914063-15-9.929687-15 0v28.296875h-111.742188v-37.785156c0-11.238282 3.417969-22.035156 9.882813-31.222656 9.6875-13.769532 49.574219-71.328126 61.40625-88.679688 53.835937 10.839844 47.34375 8.597656 56.113281 11.511719-1.089844 4.613281-13.710937 38.914062-15.453125 87.570312-.359375 9.9375 14.632813 10.425781 14.988281.539063 1.6875-47.085938 13.238282-77.382813 14.453126-82.53125 22.398437 10.734375 32.609374 26.273437 32.609374 48.746094zm0 0"/></svg>