<svg height="512" viewBox="0 0 60 60" width="512" xmlns="http://www.w3.org/2000/svg"><g id="Page-1" fill="none" fill-rule="evenodd"><g id="019---Property-Management" fill="rgb(0,0,0)" fill-rule="nonzero" transform="translate(0 -1)"><path id="Shape" d="m2 59c0 1.1045695.8954305 2 2 2h32c1.1045695 0 2-.8954305 2-2v-21.74l.14.43c.2093777.7266692.8463013 1.2481503 1.6 1.31h1.26 1.26c.7430229-.0558938 1.376925-.5590537 1.6-1.27l1.06-3.32c1.2144029-.3269503 2.3809265-.8110408 3.47-1.44l3.09 1.6c.6542038.3298502 1.4424101.2352655 2-.24.31-.27.61-.55.92-.86s.58-.6.85-.91c.4752655-.5575899.5698502-1.3457962.24-2l-1.6-3.09c.6289592-1.0890735 1.1130497-2.2555971 1.44-3.47l3.32-1.06c.7703943-.2086559 1.3166958-.8925443 1.35-1.69 0-.41 0-.82 0-1.25s0-.84 0-1.26c-.0558938-.7430229-.5590537-1.376925-1.27-1.6l-3.32-1.06c-.3269503-1.2144029-.8110408-2.3809265-1.44-3.47l1.6-3.09c.3298502-.6542038.2352655-1.44241009-.24-2-.27-.31-.55-.61-.86-.92s-.6-.58-.91-.85c-.5575899-.47526548-1.3457962-.56985023-2-.24l-3.09 1.6c-1.0890735-.62895919-2.2555971-1.11304967-3.47-1.44l-1.14-3.36c-.2093777-.72666917-.8463013-1.24815033-1.6-1.31-.8389283-.06000851-1.6810717-.06000851-2.52 0-.7430229.05589383-1.376925.55905369-1.6 1.27l-1.06 3.36c-1.2144029.32695033-2.3809265.81104081-3.47 1.44l-3.09-1.6c-.6542038-.32985023-1.4424101-.23526548-2 .24-.31.27-.61.55-.92.86s-.58.6-.85.91c-.4752655.55758991-.5698502 1.3457962-.24 2l1.6 3.09c-.6289592 1.0890735-1.1130497 2.2555971-1.44 3.47l-2.93.96h-21.74c-1.1045695 0-2 .8954305-2 2v2c0 1.1045695.8954305 2 2 2zm14-10h8v10h-8zm8-30 3.73-1.19c.3366632-.1078055.5913937-.3853477.67-.73.3270997-1.3832984.8776628-2.7039745 1.63-3.91.1943571-.3003874.2134239-.6817235.05-1l-1.78-3.47c.22-.24.44-.49.67-.72s.49-.46.73-.68l3.48 1.81c.3094011.17863279.6905989.17863279 1 0 1.2060255-.75233715 2.5267016-1.30290032 3.91-1.63.3446523-.07860625.6221945-.33333682.73-.67l1.18-3.81c.666042-.04081292 1.333958-.04081292 2 0l1.19 3.73c.1078055.33666318.3853477.59139375.73.67 1.3832984.32709968 2.7039745.87766285 3.91 1.63.3094011.17863279.6905989.17863279 1 0l3.47-1.73c.24.22.49.44.72.67s.46.48.68.73l-1.81 3.48c-.1786328.3094011-.1786328.6905989 0 1 .7523372 1.2060255 1.3029003 2.5267016 1.63 3.91.0786063.3446523.3333368.6221945.67.73l3.81 1.18v1 1l-3.73 1.19c-.3366632.1078055-.5913937.3853477-.67.73-.3270997 1.3832984-.8776628 2.7039745-1.63 3.91-.1786328.3094011-.1786328.6905989 0 1l1.73 3.47c-.22.24-.44.49-.67.72s-.49.46-.73.68l-3.48-1.81c-.3182765-.1634239-.6996126-.1443571-1 .05-1.2060255.7523372-2.5267016 1.3029003-3.91 1.63-.3446523.0786063-.6221945.3333368-.73.67l-1.18 3.76c-.666042.0408129-1.333958.0408129-2 0l-1.19-3.73c-.1078055-.3366632-.3853477-.5913937-.73-.67-1.3832984-.3270997-2.7039745-.8776628-3.91-1.63-.3003874-.1943571-.6817235-.2134239-1-.05l-3.47 1.78c-.24-.22-.49-.44-.72-.67s-.46-.48-.68-.73l1.81-3.48c.1634239-.3182765.1443571-.6996126-.05-1-.7523372-1.2060255-1.3029003-2.5267016-1.63-3.91-.0786063-.3446523-.3333368-.6221945-.67-.73l-3.76-1.18c0-.32 0-.6533333 0-1s0-.68 0-1zm-22 0h20v1 1h-20zm21.74 4 2.89.92c.3269503 1.2144029.8110408 2.3809265 1.44 3.47l-1.6 3.09c-.3298502.6542038-.2352655 1.4424101.24 2 .27.31.55.61.86.92s.6.58.91.85c.5575899.4752655 1.3457962.5698502 2 .24l3.09-1.6c.772311.4474938 1.5861013.8192252 2.43 1.11v25h-10v-10h1c.5522847 0 1-.4477153 1-1s-.4477153-1-1-1h-14c-.5522847 0-1 .4477153-1 1s.4477153 1 1 1h1v10h-10v-36z"/><path id="Shape" d="m12 37h-4c-1.1045695 0-2 .8954305-2 2v4c0 1.1045695.8954305 2 2 2h4c1.1045695 0 2-.8954305 2-2v-4c0-1.1045695-.8954305-2-2-2zm-4 6v-4h4v4z"/><path id="Shape" d="m22 37h-4c-1.1045695 0-2 .8954305-2 2v4c0 1.1045695.8954305 2 2 2h4c1.1045695 0 2-.8954305 2-2v-4c0-1.1045695-.8954305-2-2-2zm-4 6v-4h4v4z"/><path id="Shape" d="m26 43c0 1.1045695.8954305 2 2 2h4c1.1045695 0 2-.8954305 2-2v-4c0-1.1045695-.8954305-2-2-2h-4c-1.1045695 0-2 .8954305-2 2zm2-4h4v4h-4z"/><path id="Shape" d="m6 32c0 1.1045695.8954305 2 2 2h4c1.1045695 0 2-.8954305 2-2v-4c0-1.1045695-.8954305-2-2-2h-4c-1.1045695 0-2 .8954305-2 2zm6-4v4h-4v-4z"/><path id="Shape" d="m16 32c0 1.1045695.8954305 2 2 2h4c1.1045695 0 2-.8954305 2-2v-4c0-1.1045695-.8954305-2-2-2h-4c-1.1045695 0-2 .8954305-2 2zm6-4v4h-4v-4z"/><path id="Shape" d="m41 31c6.0751322 0 11-4.9248678 11-11s-4.9248678-11-11-11-11 4.9248678-11 11 4.9248678 11 11 11zm-2-2.23v-3.58c.001424-.3586848-.1893658-.690659-.5-.87-1.4503358-.8407574-2.382817-2.3523925-2.4833813-4.0257824-.1005643-1.6733898.6441727-3.2858193 1.9833813-4.2942176v3c.0043575.5301422.2119578 1.0384051.58 1.42l1 1c.7974074.7517946 2.0425926.7517946 2.84 0l1-1c.3698036-.3804446.5777056-.889446.58-1.42v-3c1.3465095 1.0030632 2.099658 2.6150025 2.0050718 4.2913906-.0945861 1.6763881-1.0242767 3.1933774-2.4750718 4.0386094-.3106342.179341-.501424.5113152-.5.87v3.58c-1.3156973.30669-2.6843027.30669-4 0zm2-17.77c4.1694758.0113711 7.7852325 2.8850637 8.7375558 6.9443418.9523233 4.059278-1.0081619 8.2411799-4.7375558 10.1056582v-2.31c1.8480882-1.2907503 2.9614881-3.3925127 2.9912245-5.6465274.0297363-2.2540147-1.0278303-4.3844177-2.8412245-5.7234726-.5897613-.4080605-1.3528652-.4691088-2-.16-.6952254.3263684-1.1421525 1.0220201-1.15 1.79v3l-1 1-1-1v-3c.0034044-.7625455-.4271066-1.4606715-1.11-1.8-.6488965-.3061903-1.4120918-.2413187-2 .17-1.8179071 1.3326879-2.8828296 3.4592442-2.8610234 5.7132113s1.1276726 4.3595219 2.9710234 5.6567887v2.31c-3.6724692-1.8918225-5.5854263-6.0408865-4.639241-10.0621743.9461854-4.0212878 4.5085133-6.8820496 8.639241-6.9378257z"/></g></g></svg>