<svg id="Layer_1" enable-background="new 0 0 512 512" height="512" viewBox="0 0 512 512" width="512" xmlns="http://www.w3.org/2000/svg"><path d="m165.419 172.926 86.603 50c1.238.714 2.619 1.072 4 1.072s2.762-.357 4-1.072l86.603-50c2.475-1.429 4-4.07 4-6.928v-100c0-2.858-1.525-5.499-4-6.928l-86.603-50c-2.476-1.429-5.525-1.429-8 0l-86.603 50c-2.475 1.429-4 4.07-4 6.928v100c0 2.858 1.525 5.499 4 6.928zm12-93.072 14.744 8.513v34.759c0 2.858 1.525 5.499 4 6.928l25.115 14.5c1.238.714 2.619 1.072 4 1.072s2.762-.357 4-1.072c2.475-1.429 4-4.07 4-6.928v-25.522l14.744 8.513v81.525l-70.603-40.763zm149.205-13.856-70.603 40.763-14.744-8.512 70.603-40.763zm-118.461 31.606 9.115 5.262v20.903l-9.115-5.262zm87.717-49.356-70.602 40.762-9.115-5.262 70.603-40.763zm-31.858 153.894v-81.525l70.603-40.762v81.525zm-8-176.907 14.744 8.512-70.603 40.763-14.744-8.513zm-81.304 444.325c-4 4.877-8.528 9.382-13.46 13.391-16.884 13.722-37.616 21.052-59.13 21.052-2.815 0-5.64-.125-8.476-.378-18.504-1.651-35.763-8.601-50.009-19.921.76 4.32-2.102 8.453-6.424 9.251-.491.09-.98.134-1.462.134-3.783 0-7.146-2.695-7.858-6.549l-4.034-21.844c-.461-2.499.292-5.068 2.03-6.923 1.737-1.854 4.25-2.776 6.776-2.475l22.426 2.651c4.388.519 7.524 4.496 7.006 8.884-.379 3.201-2.598 5.727-5.475 6.663 27.956 20.166 66.518 19.809 94.537-2.961 4.099-3.332 7.861-7.073 11.18-11.121 2.801-3.417 7.842-3.915 11.259-1.112 3.418 2.801 3.916 7.841 1.114 11.258zm-150.334-21.652c-.931.352-1.888.519-2.828.519-3.231 0-6.274-1.971-7.484-5.173-14.334-37.913-2.819-80.571 28.653-106.149 7.252-5.894 15.341-10.653 23.933-14.148-3.324-1.874-4.926-5.914-3.607-9.634 1.478-4.164 6.051-6.341 10.215-4.864l20.935 7.429c2.395.85 4.244 2.787 4.981 5.219s.274 5.069-1.246 7.106l-13.509 18.097c-1.571 2.104-3.979 3.215-6.417 3.215-1.665 0-3.343-.518-4.779-1.59-2.93-2.187-3.926-5.996-2.688-9.251-6.334 2.799-12.311 6.436-17.727 10.838-26.116 21.225-35.672 56.619-23.779 88.075 1.563 4.131-.52 8.748-4.653 10.311zm181.317-22.398c2.867 3.361 2.466 8.411-.896 11.278l-16.901 14.416c-1.463 1.248-3.308 1.913-5.191 1.913-.606 0-1.216-.069-1.819-.209-2.475-.578-4.528-2.297-5.531-4.632l-8.917-20.748c-1.744-4.059.132-8.764 4.191-10.509 3.118-1.34 6.614-.537 8.86 1.746 2.373-20.6-3.547-41.361-16.999-57.913-12.049-14.825-29.062-24.685-47.905-27.763-4.36-.712-7.318-4.825-6.605-9.186s4.824-7.321 9.186-6.605c22.712 3.711 43.219 15.595 57.741 33.463 17.019 20.941 24.028 47.468 19.982 73.489 3.347-2.453 8.068-1.949 10.804 1.26zm291.585-39.577-21.228-3.398c-1.086-3.241-2.397-6.404-3.925-9.465l12.611-17.418c2.305-3.183 1.956-7.569-.823-10.348l-17.205-17.204c-2.779-2.779-7.165-3.127-10.348-.823l-17.417 12.61c-3.063-1.529-6.226-2.84-9.467-3.926l-3.398-21.227c-.621-3.88-3.969-6.735-7.899-6.735h-24.331c-3.93 0-7.278 2.855-7.899 6.736l-3.397 21.226c-3.241 1.086-6.404 2.397-9.467 3.926l-17.416-12.61c-3.183-2.306-7.569-1.957-10.348.823l-17.205 17.204c-2.779 2.779-3.128 7.165-.823 10.348l12.61 17.417c-1.528 3.062-2.839 6.225-3.925 9.466l-21.229 3.398c-3.88.621-6.735 3.969-6.735 7.899v24.331c0 3.93 2.855 7.278 6.735 7.899l21.229 3.398c1.086 3.241 2.397 6.404 3.925 9.466l-12.611 17.418c-2.305 3.183-1.956 7.569.823 10.348l17.205 17.204c2.779 2.779 7.165 3.127 10.348.823l17.417-12.61c3.063 1.529 6.226 2.841 9.467 3.926l3.397 21.226c.621 3.881 3.969 6.736 7.899 6.736h24.331c3.93 0 7.278-2.855 7.899-6.735l3.398-21.228c3.241-1.086 6.403-2.397 9.466-3.925l17.417 12.61c3.183 2.305 7.568 1.956 10.348-.823l17.205-17.204c2.779-2.779 3.128-7.165.823-10.348l-12.61-17.417c1.529-3.063 2.841-6.226 3.926-9.466l21.227-3.398c3.88-.621 6.735-3.969 6.735-7.899v-24.331c.001-3.931-2.854-7.279-6.735-7.9zm-9.264 25.409-19.467 3.116c-3.148.504-5.696 2.829-6.486 5.918-1.353 5.289-3.456 10.362-6.253 15.077-1.627 2.743-1.47 6.19.4 8.773l11.567 15.976-7.558 7.558-15.976-11.567c-2.583-1.871-6.029-2.027-8.771-.401-4.715 2.795-9.788 4.899-15.079 6.252-3.088.79-5.413 3.338-5.917 6.486l-3.116 19.468h-10.688l-3.116-19.466c-.504-3.148-2.829-5.697-5.918-6.486-5.29-1.353-10.362-3.456-15.077-6.253-2.743-1.627-6.189-1.469-8.773.4l-15.976 11.567-7.558-7.558 11.567-15.976c1.87-2.583 2.027-6.029.401-8.772-2.795-4.713-4.898-9.786-6.252-15.079-.791-3.088-3.338-5.413-6.486-5.917l-19.468-3.116v-10.688l19.468-3.116c3.148-.504 5.697-2.829 6.486-5.918 1.353-5.29 3.456-10.363 6.252-15.077 1.626-2.743 1.469-6.19-.401-8.772l-11.567-15.977 7.558-7.558 15.975 11.566c2.583 1.87 6.029 2.027 8.772.401 4.715-2.796 9.789-4.9 15.079-6.252 3.089-.79 5.414-3.338 5.918-6.486l3.116-19.467h10.688l3.116 19.467c.504 3.148 2.829 5.696 5.918 6.486 5.289 1.353 10.362 3.456 15.078 6.253 2.742 1.627 6.189 1.468 8.772-.401l15.976-11.567 7.558 7.558-11.567 15.977c-1.87 2.583-2.027 6.029-.401 8.772 2.794 4.713 4.898 9.786 6.252 15.079.791 3.088 3.338 5.413 6.486 5.917l19.468 3.116zm-82-49.294c-24.234 0-43.95 19.716-43.95 43.95s19.716 43.95 43.95 43.95 43.95-19.716 43.95-43.95-19.716-43.95-43.95-43.95zm0 71.9c-15.412 0-27.95-12.538-27.95-27.95s12.538-27.95 27.95-27.95 27.95 12.538 27.95 27.95-12.539 27.95-27.95 27.95zm-51.397-317.95c0-2.652 1.314-5.131 3.508-6.62l33.062-22.433c3.657-2.48 8.631-1.528 11.112 2.128 2.48 3.656 1.528 8.631-2.128 11.112l-11.515 7.813h47.53c4.418 0 8 3.582 8 8v159.327c0 4.418-3.582 8-8 8s-8-3.582-8-8v-151.327h-39.529l11.514 7.812c3.656 2.481 4.609 7.456 2.128 11.112-1.547 2.28-4.065 3.509-6.627 3.509-1.546 0-3.108-.447-4.484-1.381l-33.062-22.433c-2.195-1.488-3.509-3.967-3.509-6.619zm-281.687 146.023c-2.48-3.656-1.528-8.631 2.128-11.112 3.655-2.48 8.631-1.527 11.112 2.128l7.813 11.515v-148.554c0-4.418 3.582-8 8-8h44.945c4.418 0 8 3.582 8 8s-3.582 8-8 8h-36.945v140.554l7.812-11.514c2.481-3.656 7.456-4.608 11.112-2.128 3.656 2.481 4.609 7.456 2.128 11.112l-22.433 33.062c-1.489 2.194-3.969 3.508-6.62 3.508-2.652 0-5.131-1.314-6.62-3.508zm227.868 143.977c0 2.652-1.314 5.131-3.508 6.62l-33.062 22.433c-1.375.933-2.938 1.38-4.484 1.381-2.562 0-5.08-1.229-6.627-3.509-2.48-3.656-1.528-8.631 2.128-11.112l11.515-7.813h-47.53c-4.418 0-8-3.582-8-8s3.582-8 8-8h47.53l-11.515-7.813c-3.656-2.481-4.609-7.456-2.128-11.112 2.481-3.657 7.456-4.609 11.112-2.128l33.062 22.433c2.193 1.489 3.507 3.968 3.507 6.62z"/></svg>