<svg clip-rule="evenodd" fill-rule="evenodd" stroke-linejoin="round" stroke-miterlimit="2" viewBox="0 0 510 510" xmlns="http://www.w3.org/2000/svg"><g id="Artboard351"><path d="m198.943 347.221v3.652c0 50.893-36.877 95.039-86.836 104.29-.963.178-1.951.178-2.914 0-49.929-9.251-86.808-53.397-86.808-104.29v-69.261c0-3.201 1.908-6.093 4.85-7.354l80.265-34.379c2.012-.862 4.288-.862 6.299-.001l10.809 4.628c18.092-17.287 40.431-30.17 65.286-36.929-19.209-11-33.534-29.629-38.792-51.703-10.185-.071-18.467-8.452-18.467-18.521 0-8.093 5.24-15.022 12.494-17.562.402-35.497 22.489-65.699 53.602-77.98 1.046-4.701 3.839-8.346 7.648-11.164 6.105-4.515 15.647-6.455 23.047-7.012.398-.029.797-.03 1.195 0 7.45.556 17.008 2.497 23.117 7.009 1.479 1.092 2.805 2.309 3.935 3.664 1.897-.678 4.024-.631 5.944.223 0 0 18.321 8.146 18.32 8.146 8.994-5.124 18.572-9.092 28.541-11.826l7.228-18.731c1.191-3.085 4.157-5.12 7.464-5.12h36.813c3.311 0 6.28 2.04 7.468 5.131 0 0 7.193 18.722 7.193 18.722 9.967 2.734 19.542 6.701 28.534 11.824l18.321-8.146c3.025-1.345 6.566-.688 8.907 1.653l26.025 26.025c2.338 2.338 2.997 5.874 1.658 8.897 0 0-8.117 18.325-8.118 18.325 5.128 8.998 9.097 18.582 11.832 28.581l18.686 7.191c3.088 1.189 5.126 4.157 5.126 7.466v36.814c0 3.309-2.038 6.277-5.126 7.466 0 0-18.69 7.193-18.69 7.192-2.739 9.967-6.727 19.542-11.832 28.533l6.222 14.045h4.898c11.428 0 20.766 9.339 20.766 20.767v234.763c0 11.432-9.335 20.751-20.766 20.751h-196.48c-11.431 0-20.766-9.319-20.766-20.751v-135.028zm-58.168-95.792 53.317 22.829c2.943 1.26 4.851 4.153 4.851 7.354v49.609h46.898v-83.735c0-11.428 9.338-20.767 20.766-20.767h10.923c-14.794-5.481-30.798-8.476-47.504-8.476-34.104 0-65.307 12.507-89.251 33.186zm26.891-95.555c8.085 26.775 33.01 46.369 62.36 46.369 29.349 0 54.275-19.594 62.359-46.369zm32.088-97.045c-22.316 10.881-37.845 33.528-38.601 59.927h20.984v-35.673c0-4.416 3.584-8 8-8 4.415 0 8 3.584 8 8v35.673h63.778v-35.673c0-4.416 3.585-8 8-8s8 3.584 8 8v35.673h21.059c-.758-26.374-16.312-48.999-38.605-59.893l-4.018 30.707c-.573 4.378-4.592 7.468-8.97 6.895s-7.468-4.592-6.895-8.97c0 0 5.296-40.475 5.297-40.484.285-2.309-1.319-3.536-3.118-4.444-3.756-1.896-8.618-2.601-12.64-2.929-3.982.328-8.823 1.033-12.567 2.926-1.798.91-3.404 2.141-3.113 4.456l5.296 40.475c.573 4.378-2.517 8.397-6.895 8.97s-8.397-2.517-8.97-6.895zm109.142 75.927h-157.664c-1.429 0-2.597 1.169-2.597 2.597 0 1.394 1.184 2.521 2.597 2.521h157.664c1.378 0 2.521-1.142 2.521-2.521 0-1.412-1.127-2.597-2.521-2.597zm-21.558-76.695c9.034 8.245 16.283 18.423 21.09 29.886 10.396-5.797 22.375-9.1 35.13-9.1 39.897 0 72.247 32.313 72.247 72.21 0 22.389-10.187 42.402-26.179 55.654.688 1.04 1.312 2.126 1.867 3.252h22.478c4.418 0 8 3.582 8 8v8.756h18.718l-5.016-11.326c-1.065-2.404-.881-5.177.493-7.419 6.008-9.808 10.466-20.477 13.126-31.666.61-2.567 2.447-4.669 4.909-5.617l17.414-6.702v-25.827l-17.414-6.702c-2.464-.948-4.302-3.052-4.911-5.622-2.657-11.215-7.074-21.879-13.114-31.68-1.383-2.244-1.571-5.026-.503-7.437l7.565-17.078-18.26-18.26-17.074 7.592c-2.413 1.073-5.199.886-7.447-.499-9.802-6.04-20.466-10.458-31.649-13.115-2.569-.611-4.671-2.45-5.618-4.914l-6.703-17.447h-25.829l-6.737 17.457c-.949 2.46-3.049 4.294-5.614 4.904-10.924 2.596-21.355 6.872-30.969 12.7zm25.945 45.618c1.066 5.217 1.653 10.609 1.715 16.13 7.179 2.552 12.419 9.459 12.419 17.544 0 10.109-8.365 18.492-18.468 18.521-2.317 9.729-6.396 18.789-11.878 26.821 9.449 13.874 24.94 23.301 42.694 24.484 5.265-8.295 14.529-13.805 25.074-13.805 4.436 0 8.645.973 12.424 2.716 13.685-10.262 22.542-26.614 22.542-45.033 0-31.059-25.188-56.21-56.247-56.21-11.15 0-21.538 3.24-30.275 8.832zm-5.56 139.04h-41.116c-2.623 0-4.766 2.144-4.766 4.767v234.763c0 2.621 2.146 4.751 4.766 4.751h196.48c2.62 0 4.766-2.13 4.766-4.751v-234.763c0-2.623-2.143-4.767-4.766-4.767h-41.116v8.422c0 4.418-3.582 8-8 8h-98.248c-4.418 0-8-3.582-8-8zm-37.558-35.146c13.334 3.622 25.942 9.006 37.558 15.885v-5.495c0-1.321.32-2.567.887-3.665-8.615-4.775-16.15-11.261-22.148-19-4.882 4.739-10.356 8.872-16.297 12.275zm-159.514 48.362-72.266 30.953v63.985c0 42.721 30.607 79.839 72.267 88.275 41.683-8.436 72.291-45.554 72.291-88.275v-63.984zm-53.059 104.066-.017-.017c-7.755-7.727-7.752-20.26.009-27.983 7.715-7.705 20.191-7.719 27.948-.008.006.006.012.011.017.017 0 0 12.342 12.342 12.342 12.342l37.889-38.253.01-.01c7.682-7.729 20.189-7.772 27.918-.09 7.771 7.724 7.767 20.223.101 27.936-22.496 22.719-29.271 29.8-51.905 52.406-7.729 7.757-20.268 7.75-27.973-.001zm11.297-11.331 26.356 26.356c.005.006.011.011.017.017 1.466 1.475 3.846 1.475 5.312 0 .007-.007.014-.014.021-.02 22.609-22.581 29.375-29.654 51.844-52.346l.011-.011c1.461-1.47 1.457-3.849-.021-5.319-1.465-1.455-3.834-1.443-5.29.02l-43.537 43.955c-1.498 1.512-3.536 2.365-5.665 2.37-2.128.005-4.171-.838-5.676-2.343 0 0-18.012-18.012-18.019-18.019-1.49-1.469-3.877-1.483-5.353-.006-.006.005-.011.011-.017.017-1.475 1.466-1.475 3.846 0 5.312.006.006.011.012.017.017zm298.763-43.466c-4.415 0-8-3.585-8-8 0-4.416 3.585-8 8-8h52.499c4.415 0 8 3.584 8 8 0 4.415-3.585 8-8 8zm0 144.907c-4.415 0-8-3.585-8-8s3.585-8 8-8h26.25c4.415 0 8 3.585 8 8s-3.585 8-8 8zm-60.256-44.477h22.265c8.462 0 15.351 6.907 15.351 15.335v22.264c0 8.457-6.894 15.351-15.351 15.351h-22.265c-8.427 0-15.335-6.889-15.335-15.351v-22.264c0-8.433 6.903-15.335 15.335-15.335zm.665 16v20.95h20.951v-20.95zm59.591-60.321c-4.415 0-8-3.585-8-8 0-4.416 3.585-8 8-8h52.499c4.415 0 8 3.584 8 8 0 4.415-3.585 8-8 8zm-60.256-18.131h22.265c8.457 0 15.351 6.894 15.351 15.351v22.265c0 8.427-6.889 15.335-15.351 15.335h-22.265c-8.432 0-15.335-6.903-15.335-15.335v-22.265c0-8.461 6.908-15.351 15.335-15.351zm.665 16v20.951h20.951v-20.951zm-.665-78.452h22.265c8.457 0 15.351 6.895 15.351 15.351v22.265c0 8.423-6.894 15.351-15.351 15.351h-22.265c-8.427 0-15.335-6.923-15.335-15.351v-22.265c0-8.461 6.908-15.351 15.335-15.351zm.665 16v20.967h20.951v-20.967zm59.591 84.587c-4.415 0-8-3.585-8-8 0-4.416 3.585-8 8-8h26.25c4.415 0 8 3.584 8 8 0 4.415-3.585 8-8 8zm0 48.79c-4.415 0-8-3.585-8-8s3.585-8 8-8h52.499c4.415 0 8 3.585 8 8s-3.585 8-8 8zm0-104.899c-4.415 0-8-3.585-8-8 0-4.416 3.585-8 8-8h26.25c4.415 0 8 3.584 8 8 0 4.415-3.585 8-8 8zm-43.929-99.245v17.178h82.248v-17.178h-20.038c-3.697 0-6.912-2.532-7.778-6.125-1.447-6.005-6.86-10.464-13.316-10.464-6.444 0-11.854 4.461-13.3 10.464-.866 3.593-4.081 6.125-7.778 6.125zm41.116-1.072c-3.155 0-5.725-2.569-5.725-5.724 0-3.172 2.57-5.741 5.725-5.741 3.171 0 5.741 2.569 5.741 5.741 0 3.155-2.57 5.724-5.741 5.724z"/></g></svg>