<svg xmlns="http://www.w3.org/2000/svg" height="512pt" version="1.1" viewBox="0 0 512 512.002" width="512pt">
<g id="surface1">
<path d="M 489.5 217.5 C 479.722656 217.5 471.386719 223.769531 468.289062 232.5 L 425.5 232.5 L 425.5 223.75 C 425.5 219.609375 422.144531 216.25 418 216.25 C 413.859375 216.25 410.5 219.609375 410.5 223.75 L 410.5 260.3125 C 410.5 297.714844 397.960938 332.933594 375.191406 359.476562 C 343.390625 396.535156 303.296875 424.714844 256 443.25 C 213.714844 426.679688 177.078125 402.324219 147.09375 370.851562 C 144.234375 367.851562 139.488281 367.734375 136.488281 370.59375 C 133.492188 373.449219 133.375 378.195312 136.230469 381.195312 C 146.582031 392.058594 157.691406 402.097656 169.5 411.320312 L 169.5 468.292969 C 160.773438 471.386719 154.5 479.722656 154.5 489.503906 C 154.5 501.910156 164.59375 512.003906 177 512.003906 C 189.40625 512.003906 199.5 501.910156 199.5 489.503906 C 199.5 479.726562 193.230469 471.386719 184.5 468.292969 L 184.5 422.308594 C 205.085938 436.472656 227.570312 448.328125 251.820312 457.722656 C 253.171875 458.242188 254.585938 458.503906 256.003906 458.503906 C 257.417969 458.503906 258.832031 458.242188 260.175781 457.722656 C 310.34375 438.292969 352.871094 408.527344 386.578125 369.242188 C 402.171875 351.066406 413.40625 329.246094 419.6875 305.5 L 445.039062 305.5 C 448.136719 314.230469 456.472656 320.5 466.25 320.5 C 478.65625 320.5 488.75 310.40625 488.75 298 C 488.75 285.59375 478.65625 275.5 466.25 275.5 C 456.472656 275.5 448.136719 281.773438 445.039062 290.5 L 422.949219 290.5 C 424.636719 280.65625 425.5 270.554688 425.5 260.3125 L 425.5 247.5 L 468.289062 247.5 C 471.386719 256.230469 479.722656 262.5 489.5 262.5 C 501.90625 262.5 512 252.40625 512 240 C 512 227.59375 501.90625 217.5 489.5 217.5 Z M 177 497 C 172.863281 497 169.5 493.636719 169.5 489.5 C 169.5 485.363281 172.863281 482 177 482 C 181.136719 482 184.5 485.363281 184.5 489.5 C 184.5 493.636719 181.136719 497 177 497 Z M 466.25 290.5 C 470.386719 290.5 473.75 293.863281 473.75 298 C 473.75 302.136719 470.386719 305.5 466.25 305.5 C 462.113281 305.5 458.75 302.136719 458.75 298 C 458.75 293.863281 462.113281 290.5 466.25 290.5 Z M 489.5 247.5 C 485.363281 247.5 482 244.136719 482 240 C 482 235.863281 485.363281 232.5 489.5 232.5 C 493.636719 232.5 497 235.863281 497 240 C 497 244.136719 493.636719 247.5 489.5 247.5 Z M 489.5 247.5 " style=" stroke:none;fill-rule:nonzero;fill:rgb(0%,0%,0%);fill-opacity:1;" />
<path d="M 101.5 260.3125 L 101.5 123.875 C 129.011719 117.371094 157.59375 105.25 186.507812 87.816406 C 229.371094 61.976562 282.628906 61.976562 325.492188 87.816406 C 338.359375 95.570312 351.15625 102.269531 363.824219 107.894531 C 363.964844 107.960938 364.105469 108.027344 364.253906 108.082031 C 379.910156 115.007812 395.367188 120.296875 410.5 123.875 L 410.5 191.664062 C 410.5 195.808594 413.855469 199.164062 418 199.164062 C 422.144531 199.164062 425.5 195.808594 425.5 191.664062 L 425.5 121.121094 C 425.5 115.757812 421.804688 111.042969 416.710938 109.910156 C 402.9375 106.847656 388.828125 102.246094 374.5 96.175781 L 374.5 43.710938 C 383.230469 40.613281 389.5 32.277344 389.5 22.5 C 389.5 10.09375 379.40625 0 367 0 C 354.59375 0 344.5 10.09375 344.5 22.5 C 344.5 32.277344 350.773438 40.613281 359.5 43.710938 L 359.5 89.328125 C 350.808594 85.066406 342.046875 80.28125 333.238281 74.972656 C 285.597656 46.25 226.402344 46.253906 178.765625 74.972656 C 150.203125 92.1875 122.117188 103.945312 95.289062 109.910156 C 90.195312 111.042969 86.5 115.757812 86.5 121.121094 L 86.5 166.5 L 43.710938 166.5 C 40.613281 157.769531 32.277344 151.5 22.5 151.5 C 10.09375 151.5 0 161.59375 0 174 C 0 186.40625 10.09375 196.5 22.5 196.5 C 32.277344 196.5 40.613281 190.230469 43.710938 181.5 L 86.5 181.5 L 86.5 224.5 L 66.960938 224.5 C 63.863281 215.769531 55.527344 209.5 45.75 209.5 C 33.34375 209.5 23.25 219.59375 23.25 232 C 23.25 244.40625 33.34375 254.5 45.75 254.5 C 55.527344 254.5 63.863281 248.230469 66.960938 239.5 L 86.5 239.5 L 86.5 260.3125 C 86.5 296.257812 96.882812 329.972656 116.519531 357.808594 C 117.980469 359.878906 120.300781 360.984375 122.65625 360.984375 C 124.148438 360.984375 125.660156 360.539062 126.972656 359.613281 C 130.355469 357.222656 131.164062 352.542969 128.777344 349.160156 C 110.933594 323.867188 101.5 293.144531 101.5 260.3125 Z M 367 15 C 371.136719 15 374.5 18.363281 374.5 22.5 C 374.5 26.636719 371.136719 30 367 30 C 362.863281 30 359.5 26.636719 359.5 22.5 C 359.5 18.363281 362.863281 15 367 15 Z M 22.5 181.5 C 18.363281 181.5 15 178.136719 15 174 C 15 169.863281 18.363281 166.5 22.5 166.5 C 26.636719 166.5 30 169.863281 30 174 C 30 178.136719 26.636719 181.5 22.5 181.5 Z M 45.75 239.5 C 41.613281 239.5 38.25 236.136719 38.25 232 C 38.25 227.863281 41.613281 224.5 45.75 224.5 C 49.886719 224.5 53.25 227.863281 53.25 232 C 53.25 236.136719 49.886719 239.5 45.75 239.5 Z M 45.75 239.5 " style=" stroke:none;fill-rule:nonzero;fill:rgb(0%,0%,0%);fill-opacity:1;" />
<path d="M 173.492188 129.152344 C 177.203125 127.316406 178.726562 122.816406 176.890625 119.105469 C 175.054688 115.394531 170.554688 113.871094 166.839844 115.707031 C 152.648438 122.726562 138.398438 128.550781 124.492188 133.019531 C 119.710938 134.554688 116.5 138.953125 116.5 143.964844 L 116.5 260.3125 C 116.5 294.136719 127.753906 325.882812 148.1875 349.703125 C 176.160156 382.304688 211.03125 407.742188 251.835938 425.320312 C 253.15625 425.890625 254.578125 426.175781 256 426.175781 C 257.421875 426.175781 258.84375 425.890625 260.167969 425.320312 C 300.96875 407.746094 335.835938 382.308594 363.804688 349.710938 C 384.242188 325.882812 395.5 294.136719 395.5 260.3125 L 395.5 143.964844 C 395.5 138.953125 392.289062 134.554688 387.507812 133.019531 C 364.65625 125.679688 341.1875 114.792969 317.75 100.664062 C 299.125 89.433594 277.773438 83.5 256 83.5 C 234.230469 83.5 212.878906 89.433594 194.25 100.664062 L 192.65625 101.621094 C 189.097656 103.742188 187.933594 108.347656 190.054688 111.90625 C 192.175781 115.464844 196.777344 116.628906 200.335938 114.507812 C 200.890625 114.175781 201.445312 113.84375 201.996094 113.511719 C 218.285156 103.691406 236.960938 98.5 256 98.5 C 275.042969 98.5 293.71875 103.691406 310.007812 113.511719 C 333.613281 127.742188 357.316406 138.835938 380.5 146.511719 L 380.5 260.308594 C 380.5 290.554688 370.527344 318.835938 352.421875 339.941406 C 326.355469 370.320312 293.921875 394.144531 256 410.773438 C 218.074219 394.140625 185.640625 370.316406 159.574219 339.9375 C 141.46875 318.832031 131.5 290.554688 131.5 260.308594 L 131.5 146.511719 C 145.339844 141.929688 159.453125 136.09375 173.492188 129.152344 Z M 173.492188 129.152344 " style=" stroke:none;fill-rule:nonzero;fill:rgb(0%,0%,0%);fill-opacity:1;" />
<path d="M 256 175.5 C 235.324219 175.5 218.5 192.320312 218.5 213 L 218.5 225.5 L 216 225.5 C 206.351562 225.5 198.5 233.351562 198.5 243 L 198.5 303 C 198.5 312.648438 206.351562 320.5 216 320.5 L 296 320.5 C 305.648438 320.5 313.5 312.648438 313.5 303 L 313.5 243 C 313.5 233.351562 305.648438 225.5 296 225.5 L 293.5 225.5 L 293.5 213 C 293.5 192.320312 276.679688 175.5 256 175.5 Z M 233.5 213 C 233.5 200.59375 243.59375 190.5 256 190.5 C 268.40625 190.5 278.5 200.59375 278.5 213 L 278.5 225.5 L 233.5 225.5 Z M 298.5 243 L 298.5 303 C 298.5 304.378906 297.378906 305.5 296 305.5 L 216 305.5 C 214.621094 305.5 213.5 304.378906 213.5 303 L 213.5 243 C 213.5 241.621094 214.621094 240.5 216 240.5 L 296 240.5 C 297.378906 240.5 298.5 241.621094 298.5 243 Z M 298.5 243 " style=" stroke:none;fill-rule:nonzero;fill:rgb(0%,0%,0%);fill-opacity:1;" />
<path d="M 256 243 C 243.59375 243 233.5 253.09375 233.5 265.5 C 233.5 275.277344 239.773438 283.613281 248.5 286.710938 L 248.5 295.5 C 248.5 299.640625 251.859375 303 256 303 C 260.144531 303 263.5 299.640625 263.5 295.5 L 263.5 286.710938 C 272.230469 283.613281 278.5 275.277344 278.5 265.5 C 278.5 253.09375 268.40625 243 256 243 Z M 256 273 C 251.863281 273 248.5 269.636719 248.5 265.5 C 248.5 261.363281 251.863281 258 256 258 C 260.136719 258 263.5 261.363281 263.5 265.5 C 263.5 269.636719 260.136719 273 256 273 Z M 256 273 " style=" stroke:none;fill-rule:nonzero;fill:rgb(0%,0%,0%);fill-opacity:1;" />
</g>
</svg>