<svg id="Layer_1" enable-background="new 0 0 512 512" viewBox="0 0 512 512" xmlns="http://www.w3.org/2000/svg"><path d="m449.729 122.795h-.257v-6.854c0-1.856-.737-3.637-2.05-4.95-1.313-1.312-3.093-2.05-4.95-2.05h-40.605v-26.54h7.827c2.871 7.871 10.409 13.517 19.261 13.517 11.313 0 20.517-9.204 20.517-20.517s-9.204-20.518-20.517-20.518c-8.852 0-16.391 5.646-19.261 13.518h-14.827c-3.866 0-7 3.134-7 7v33.542h-27.159c-3.866 0-7 3.134-7 7 0 39.229-31.916 71.146-71.146 71.146s-71.146-31.916-71.146-71.146c0-3.866-3.134-7-7-7h-27.16v-33.542c0-3.866-3.134-7-7-7h-14.827c-2.871-7.872-10.409-13.518-19.261-13.518-11.313 0-20.517 9.204-20.517 20.518 0 11.312 9.204 20.517 20.517 20.517 8.852 0 16.39-5.646 19.261-13.517h7.827v26.541h-40.605c-3.866 0-7 3.134-7 7v7.555c-15.375 3.182-26.967 16.827-26.967 33.131v108.412c-.435-.338-.858-.703-1.261-1.106-4.969-4.969-13.053-4.966-18.021 0l-12.364 12.364c-2.407 2.407-3.732 5.607-3.732 9.011s1.326 6.604 3.732 9.01c3.646 3.646 4.642 8.676 2.663 13.453s-6.239 7.629-11.395 7.629c-7.026 0-12.743 5.717-12.743 12.743v17.485c0 7.026 5.716 12.742 12.743 12.742 5.157 0 9.417 2.853 11.395 7.63 1.979 4.776.983 9.806-2.662 13.451-2.407 2.406-3.733 5.606-3.733 9.011s1.326 6.605 3.732 9.011l12.362 12.364c4.968 4.967 13.052 4.967 18.021 0 3.653-3.653 8.683-4.655 13.458-2.677 4.773 1.977 7.623 6.242 7.623 11.408 0 7.026 5.717 12.743 12.743 12.743h17.484c7.026 0 12.743-5.717 12.743-12.743 0-5.156 2.852-9.416 7.628-11.395 4.778-1.979 9.807-.983 13.454 2.663 4.969 4.967 13.053 4.968 18.021-.001l4.83-4.83h31.709c-.427 19.636-5.091 39.271-10.364 51.327h-21.55c-12.866 0-23.333 10.467-23.333 23.332 0 12.866 10.467 23.334 23.333 23.334h174.724c12.866 0 23.333-10.468 23.333-23.334 0-12.865-10.467-23.332-23.333-23.332h-21.619c-5.527-12.255-10.496-31.955-11.109-51.327h105.411c18.655 0 33.832-15.177 33.832-33.832v-221.665c0-14.73-11.982-26.714-26.71-26.714zm-20.775-53.912c3.594 0 6.517 2.924 6.517 6.518s-2.923 6.517-6.517 6.517-6.517-2.923-6.517-6.517 2.924-6.518 6.517-6.518zm-292.788 13.034c-3.594 0-6.517-2.923-6.517-6.517s2.923-6.518 6.517-6.518 6.517 2.924 6.517 6.518-2.923 6.517-6.517 6.517zm-6.517 41.025h68.051c3.57 43.689 40.267 78.146 84.861 78.146s81.291-34.456 84.861-78.146l68.05-.001v8.991c0 1.932-1.572 3.504-3.504 3.504-17.453 0-32.45 10.031-39.138 26.179-6.689 16.148-3.178 33.847 9.163 46.187 1.367 1.367 1.367 3.591 0 4.958l-22.614 22.614c-1.368 1.367-3.592 1.366-4.958.001-12.341-12.342-30.037-15.853-46.187-9.164-16.148 6.688-26.18 21.685-26.18 39.138 0 1.932-1.572 3.504-3.504 3.504h-31.98c-1.932 0-3.504-1.572-3.504-3.504 0-17.471-10.027-32.478-26.169-39.163-5.409-2.24-10.993-3.335-16.492-3.335-10.912 0-21.491 4.31-29.705 12.523-1.367 1.366-3.59 1.367-4.957.001l-22.615-22.616c-1.366-1.366-1.366-3.59 0-4.956 12.341-12.341 15.852-30.039 9.164-46.187s-21.686-26.18-39.139-26.18c-1.932 0-3.504-1.572-3.504-3.504zm-13.009 14.742c2.387 6.831 8.879 11.753 16.514 11.753 13.965 0 22.693 9.059 26.205 17.537 3.511 8.478 3.746 21.055-6.129 30.93-6.824 6.826-6.824 17.931 0 24.755l22.615 22.616c6.826 6.825 17.93 6.823 24.754-.001 9.89-9.891 22.467-9.663 30.941-6.153 8.473 3.509 17.526 12.242 17.526 26.229 0 9.651 7.853 17.504 17.504 17.504h31.98c9.652 0 17.504-7.853 17.504-17.504 0-13.964 9.059-22.692 17.537-26.204s21.055-3.745 30.93 6.13c6.826 6.825 17.931 6.823 24.755-.001l22.615-22.614c6.825-6.825 6.825-17.93 0-24.757-9.875-9.874-9.641-22.451-6.129-30.93 3.512-8.478 12.239-17.536 26.204-17.536 7.963 0 14.689-5.351 16.802-12.642h.959c7.009 0 12.71 5.703 12.71 12.714v188.125h-238.022v-9.491c0-7.026-5.717-12.743-12.743-12.743-5.156 0-9.416-2.852-11.395-7.629s-.983-9.807 2.662-13.452c2.407-2.406 3.733-5.606 3.733-9.011 0-3.403-1.325-6.604-3.732-9.012l-12.364-12.363c-4.969-4.967-13.053-4.967-18.021 0-3.647 3.646-8.677 4.643-13.453 2.663-4.777-1.979-7.629-6.239-7.629-11.396 0-7.026-5.716-12.742-12.743-12.742h-17.484c-7.026 0-12.743 5.716-12.743 12.742 0 4.467-2.143 8.258-5.821 10.48v-109.054c0-8.891 5.881-16.433 13.958-18.943zm64.906 261.386c-7.616-6.963-18.154-8.823-27.802-4.829-9.647 3.996-15.781 12.764-16.243 23.072h-15.026c-.462-10.318-6.594-19.092-16.238-23.086-9.645-3.995-20.185-2.128-27.807 4.843l-10.626-10.627c6.963-7.615 8.824-18.153 4.829-27.801-3.996-9.646-12.763-15.781-23.072-16.243v-15.027c10.309-.462 19.076-6.596 23.072-16.243 3.996-9.646 2.134-20.184-4.829-27.801l10.626-10.626c7.616 6.962 18.153 8.822 27.801 4.829 9.646-3.996 15.78-12.764 16.243-23.072h15.027c.462 10.309 6.597 19.076 16.243 23.072 9.648 3.996 20.185 2.135 27.802-4.829l10.626 10.626c-6.963 7.616-8.825 18.154-4.829 27.802 3.996 9.646 12.763 15.78 23.072 16.242v15.027c-10.309.462-19.077 6.597-23.072 16.243-3.996 9.647-2.134 20.185 4.829 27.801zm197.711 80.597c0 5.146-4.187 9.334-9.333 9.334h-174.724c-5.146 0-9.333-4.188-9.333-9.334s4.187-9.332 9.333-9.332h174.724c5.147-.001 9.333 4.186 9.333 9.332zm-46.116-23.333h-101.299c5.415-14.701 8.899-33.79 9.268-51.327h82.089c.518 17.344 4.254 36.443 9.942 51.327zm109.466-65.327h-236.189c.167-.829.254-1.68.254-2.545 0-3.404-1.326-6.604-3.732-9.011-3.646-3.646-4.642-8.675-2.663-13.452s6.238-7.629 11.395-7.629c4.855 0 9.083-2.731 11.233-6.736h239.534v19.541c0 10.936-8.896 19.832-19.832 19.832zm-138.295-19.686c0 3.866-3.134 7-7 7h-29.503c-3.866 0-7-3.134-7-7s3.134-7 7-7h29.503c3.866 0 7 3.134 7 7zm-134.057-321.287c8.852 0 16.39-5.646 19.261-13.517h29.892v79.426c0 34.822 28.331 63.152 63.153 63.152s63.153-28.33 63.153-63.152v-79.426h29.891c2.871 7.872 10.409 13.518 19.261 13.518 11.313 0 20.518-9.204 20.518-20.518s-9.205-20.517-20.519-20.517c-8.852 0-16.391 5.646-19.261 13.518h-36.891c-3.866 0-7 3.134-7 7v79.426h-42.153v-14.283c7.871-2.871 13.517-10.409 13.517-19.26 0-11.313-9.204-20.518-20.517-20.518s-20.518 9.204-20.518 20.518c0 8.852 5.646 16.39 13.518 19.261v14.281h-42.153v-79.426c0-3.866-3.134-7-7-7h-36.892c-2.87-7.871-10.409-13.517-19.26-13.517-11.313 0-20.517 9.204-20.517 20.517s9.204 20.517 20.517 20.517zm224.61-27.034c3.594 0 6.518 2.924 6.518 6.518s-2.924 6.518-6.518 6.518-6.517-2.924-6.517-6.518 2.924-6.518 6.517-6.518zm-112.305 45.883c3.594 0 6.517 2.924 6.517 6.518s-2.923 6.517-6.517 6.517-6.518-2.923-6.518-6.517 2.925-6.518 6.518-6.518zm48.657 54.06c-3.407 23.8-23.929 42.152-48.656 42.152s-45.249-18.353-48.656-42.152zm-160.962-99.943c3.594 0 6.517 2.923 6.517 6.517s-2.923 6.517-6.517 6.517-6.517-2.923-6.517-6.517 2.923-6.517 6.517-6.517zm-40.267 264.162c-27.418 0-49.725 22.306-49.725 49.724s22.306 49.725 49.725 49.725c27.418 0 49.724-22.307 49.724-49.725s-22.306-49.724-49.724-49.724zm0 85.448c-19.699 0-35.725-16.026-35.725-35.725s16.026-35.724 35.725-35.724c19.698 0 35.724 16.025 35.724 35.724s-16.026 35.725-35.724 35.725z"/></svg>