<?xml version="1.0" encoding="UTF-8" standalone="no"?>
<!-- Created with Inkscape (http://www.inkscape.org/) -->

<svg
   version="1.1"
   id="svg831"
   xml:space="preserve"
   width="682.66669"
   height="682.66669"
   viewBox="0 0 682.66669 682.66669"
   xmlns="http://www.w3.org/2000/svg"
   xmlns:svg="http://www.w3.org/2000/svg"><defs
     id="defs835"><clipPath
       clipPathUnits="userSpaceOnUse"
       id="clipPath845"><path
         d="M 0,512 H 512 V 0 H 0 Z"
         id="path843" /></clipPath></defs><g
     id="g837"
     transform="matrix(1.3333333,0,0,-1.3333333,0,682.66667)"><g
       id="g839"><g
         id="g841"
         clip-path="url(#clipPath845)"><g
           id="g847"
           transform="translate(245.75,400.6255)"><path
             d="M 0,0 C -11.615,11.614 -30.411,11.614 -42.026,0"
             style="fill:none;stroke:#000000;stroke-width:15;stroke-linecap:round;stroke-linejoin:round;stroke-miterlimit:10;stroke-dasharray:none;stroke-opacity:1"
             id="path849" /></g><g
           id="g851"
           transform="translate(269.2207,425.0396)"><path
             d="M 0,0 C -24.588,24.587 -64.379,24.587 -88.967,0"
             style="fill:none;stroke:#000000;stroke-width:15;stroke-linecap:round;stroke-linejoin:round;stroke-miterlimit:10;stroke-dasharray:none;stroke-opacity:1"
             id="path853" /></g><g
           id="g855"
           transform="translate(293.7607,450.9927)"><path
             d="M 0,0 C -38.151,38.152 -99.896,38.152 -138.048,0"
             style="fill:none;stroke:#000000;stroke-width:15;stroke-linecap:round;stroke-linejoin:round;stroke-miterlimit:10;stroke-dasharray:none;stroke-opacity:1"
             id="path857" /></g><g
           id="g859"
           transform="translate(503.6953,450.9014)"><path
             d="m 0,0 c 0,-29.602 -23.997,-102.467 -53.599,-102.467 -29.601,0 -53.598,72.865 -53.598,102.467 0,29.602 23.997,53.599 53.598,53.599 C -23.997,53.599 0,29.602 0,0 Z"
             style="fill:none;stroke:#000000;stroke-width:15;stroke-linecap:round;stroke-linejoin:round;stroke-miterlimit:10;stroke-dasharray:none;stroke-opacity:1"
             id="path861" /></g><g
           id="g863"
           transform="translate(470.3877,451.6167)"><path
             d="m 0,0 c 0,-11.207 -9.084,-20.292 -20.291,-20.292 -11.207,0 -20.291,9.085 -20.291,20.292 0,11.207 9.084,20.292 20.291,20.292 C -9.084,20.292 0,11.207 0,0 Z"
             style="fill:none;stroke:#000000;stroke-width:15;stroke-linecap:round;stroke-linejoin:round;stroke-miterlimit:10;stroke-dasharray:none;stroke-opacity:1"
             id="path865" /></g><g
           id="g867"
           transform="translate(52.9556,426.4668)"><path
             d="m 0,0 c 0,-12.33 -9.996,-22.325 -22.326,-22.325 -12.329,0 -22.325,9.995 -22.325,22.325 0,12.33 9.996,22.326 22.325,22.326 C -9.996,22.326 0,12.33 0,0 Z"
             style="fill:none;stroke:#000000;stroke-width:15;stroke-linecap:round;stroke-linejoin:round;stroke-miterlimit:10;stroke-dasharray:none;stroke-opacity:1"
             id="path869" /></g><g
           id="g871"
           transform="translate(81.9043,426.4668)"><path
             d="M 0,0 H 63.517"
             style="fill:none;stroke:#000000;stroke-width:15;stroke-linecap:round;stroke-linejoin:round;stroke-miterlimit:10;stroke-dasharray:0, 27;stroke-dashoffset:0;stroke-opacity:1"
             id="path873" /></g><g
           id="g875"
           transform="translate(310.7236,426.4668)"><path
             d="M 0,0 H 64.465"
             style="fill:none;stroke:#000000;stroke-width:15;stroke-linecap:round;stroke-linejoin:round;stroke-miterlimit:10;stroke-dasharray:0, 27;stroke-dashoffset:0;stroke-opacity:1"
             id="path877" /></g><g
           id="g879"
           transform="translate(247.2134,310.3491)"><path
             d="m 0,0 v 15.531 c 0,11.206 -9.084,20.291 -20.292,20.291 -11.206,0 -20.291,-9.085 -20.291,-20.291 V 0"
             style="fill:none;stroke:#000000;stroke-width:15;stroke-linecap:round;stroke-linejoin:round;stroke-miterlimit:10;stroke-dasharray:none;stroke-opacity:1"
             id="path881" /></g><g
           id="g883"
           transform="translate(52.8516,54.3418)"><path
             d="M 0,0 H -23.861 C -35.73,0 -45.352,9.608 -45.352,21.46 v 30.712 c 0,41.512 14.717,81.679 41.535,113.365 l 28.819,34.051 c 30.227,35.712 74.627,56.327 121.414,56.37 l 54.389,0.049 c 33.926,0.031 66.977,-10.774 94.335,-30.84 l 84.816,-62.211 C 425.023,129.899 451.648,77.351 451.648,21.46 451.648,9.608 442.026,0 430.157,0 h -32.912"
             style="fill:none;stroke:#000000;stroke-width:15;stroke-linecap:round;stroke-linejoin:round;stroke-miterlimit:10;stroke-dasharray:none;stroke-opacity:1"
             id="path885" /></g><g
           id="g887"
           transform="translate(330.3398,54.3418)"><path
             d="M 0,0 H -158.463"
             style="fill:none;stroke:#000000;stroke-width:15;stroke-linecap:round;stroke-linejoin:round;stroke-miterlimit:10;stroke-dasharray:none;stroke-opacity:1"
             id="path889" /></g><g
           id="g891"
           transform="translate(112.6587,127.5928)"><path
             d="m 0,0 c -33.52,0 -60.693,-26.884 -60.693,-60.046 0,-33.163 27.173,-60.047 60.693,-60.047 33.52,0 60.693,26.884 60.693,60.047 C 60.693,-26.884 33.52,0 0,0 Z"
             style="fill:none;stroke:#000000;stroke-width:15;stroke-linecap:round;stroke-linejoin:round;stroke-miterlimit:10;stroke-dasharray:none;stroke-opacity:1"
             id="path893" /></g><g
           id="g895"
           transform="translate(113.9805,41.0796)"><path
             d="m 0,0 c 14.315,0.677 25.749,12.289 25.749,26.467 0,14.612 -12.144,26.5 -27.071,26.5 -14.927,0 -27.07,-11.888 -27.07,-26.5 0,-0.778 0.041,-1.546 0.109,-2.307"
             style="fill:none;stroke:#000000;stroke-width:15;stroke-linecap:round;stroke-linejoin:round;stroke-miterlimit:10;stroke-dasharray:none;stroke-opacity:1"
             id="path897" /></g><g
           id="g899"
           transform="translate(405.3838,125.5176)"><path
             d="m 0,0 c -5.048,1.346 -10.35,2.075 -15.826,2.075 -33.521,0 -60.694,-26.884 -60.694,-60.046 0,-33.163 27.173,-60.047 60.694,-60.047 33.519,0 60.693,26.884 60.693,60.047 0,13.619 -4.59,26.174 -12.313,36.248"
             style="fill:none;stroke:#000000;stroke-width:15;stroke-linecap:round;stroke-linejoin:round;stroke-miterlimit:10;stroke-dasharray:none;stroke-opacity:1"
             id="path901" /></g><g
           id="g903"
           transform="translate(389.5576,41.0464)"><path
             d="M 0,0 C -14.928,0 -27.07,11.888 -27.07,26.5 -27.07,41.112 -14.928,53 0,53 14.927,53 27.07,41.112 27.07,26.5 27.07,11.888 14.927,0 0,0 Z"
             style="fill:none;stroke:#000000;stroke-width:15;stroke-linecap:round;stroke-linejoin:round;stroke-miterlimit:10;stroke-dasharray:none;stroke-opacity:1"
             id="path905" /></g><g
           id="g907"
           transform="translate(346.8574,280.3408)"><path
             d="m 0,0 -16.707,-0.008 c -8.332,-0.002 -14.151,-8.25 -11.361,-16.1 l 16.256,-45.732 h 96.123"
             style="fill:none;stroke:#000000;stroke-width:15;stroke-linecap:round;stroke-linejoin:round;stroke-miterlimit:10;stroke-dasharray:none;stroke-opacity:1"
             id="path909" /></g><g
           id="g911"
           transform="translate(199.9888,280.2993)"><path
             d="m 0,0 c -38.045,-0.035 -73.963,-16.71 -98.542,-45.751 l -13.583,-16.048 H 102.678 L 88.147,-19.491 C 84.138,-7.819 73.158,0.018 60.816,0.014 Z"
             style="fill:none;stroke:#000000;stroke-width:15;stroke-linecap:round;stroke-linejoin:round;stroke-miterlimit:10;stroke-dasharray:none;stroke-opacity:1"
             id="path913" /></g><g
           id="g915"
           transform="translate(486.8643,152.4673)"><path
             d="m 0,0 h -20.643 c -6.197,0 -11.221,-5.024 -11.221,-11.222 0,-12.352 10.013,-22.365 22.366,-22.365 h 21.764 c 0,0 -4.162,18.766 -12.266,33.587 z"
             style="fill:none;stroke:#000000;stroke-width:15;stroke-linecap:round;stroke-linejoin:round;stroke-miterlimit:10;stroke-dasharray:none;stroke-opacity:1"
             id="path917" /></g><g
           id="g919"
           transform="translate(477.333,92.5464)"><path
             d="M 0,0 V -10.333"
             style="fill:none;stroke:#000000;stroke-width:15;stroke-linecap:round;stroke-linejoin:round;stroke-miterlimit:10;stroke-dasharray:none;stroke-opacity:1"
             id="path921" /></g><g
           id="g923"
           transform="translate(160.9307,274.2295)"><path
             d="M 0,0 V -55.729"
             style="fill:none;stroke:#000000;stroke-width:15;stroke-linecap:round;stroke-linejoin:round;stroke-miterlimit:10;stroke-dasharray:none;stroke-opacity:1"
             id="path925" /></g><g
           id="g927"
           transform="translate(160.9307,187.4429)"><path
             d="M 0,0 V -42.742"
             style="fill:none;stroke:#000000;stroke-width:15;stroke-linecap:round;stroke-linejoin:round;stroke-miterlimit:10;stroke-dasharray:none;stroke-opacity:1"
             id="path929" /></g></g></g></g></svg>
