<?xml version="1.0" encoding="UTF-8" standalone="no"?>
<!-- Created with Inkscape (http://www.inkscape.org/) -->

<svg
   version="1.1"
   id="svg4533"
   xml:space="preserve"
   width="682.66669"
   height="682.66669"
   viewBox="0 0 682.66669 682.66669"
   xmlns="http://www.w3.org/2000/svg"
   xmlns:svg="http://www.w3.org/2000/svg"><defs
     id="defs4537"><clipPath
       clipPathUnits="userSpaceOnUse"
       id="clipPath4547"><path
         d="M 0,512 H 512 V 0 H 0 Z"
         id="path4545" /></clipPath></defs><g
     id="g4539"
     transform="matrix(1.3333333,0,0,-1.3333333,0,682.66667)"><g
       id="g4541"><g
         id="g4543"
         clip-path="url(#clipPath4547)"><g
           id="g4549"
           transform="translate(327.8203,261.7012)"><path
             d="M 0,0 C 22.93,-8.047 39.371,-29.885 39.371,-55.563"
             style="fill:none;stroke:#000000;stroke-width:15;stroke-linecap:round;stroke-linejoin:round;stroke-miterlimit:10;stroke-dasharray:none;stroke-opacity:1"
             id="path4551" /></g><g
           id="g4553"
           transform="translate(270.46,306.5801)"><path
             d="m 0,0 c 4.29,16.91 19.62,29.42 37.86,29.42 21.57,0 39.06,-17.49 39.06,-39.061 0,-21.569 -17.49,-39.049 -39.06,-39.049 -3.69,0 -7.27,0.51 -10.66,1.47"
             style="fill:none;stroke:#000000;stroke-width:15;stroke-linecap:round;stroke-linejoin:round;stroke-miterlimit:10;stroke-dasharray:none;stroke-opacity:1"
             id="path4555" /></g><g
           id="g4557"
           transform="translate(144.8086,206.1377)"><path
             d="M 0,0 C 0,24.384 14.826,45.307 35.955,54.243"
             style="fill:none;stroke:#000000;stroke-width:15;stroke-linecap:round;stroke-linejoin:round;stroke-miterlimit:10;stroke-dasharray:none;stroke-opacity:1"
             id="path4559" /></g><g
           id="g4561"
           transform="translate(241.7139,305.8545)"><path
             d="m 0,0 c -4.032,17.276 -19.531,30.146 -38.035,30.146 -4.674,0 -9.154,-0.824 -13.308,-2.33"
             style="fill:none;stroke:#000000;stroke-width:15;stroke-linecap:round;stroke-linejoin:round;stroke-miterlimit:10;stroke-dasharray:none;stroke-opacity:1"
             id="path4563" /></g><g
           id="g4565"
           transform="translate(166.6367,309.3213)"><path
             d="m 0,0 c -1.3,-3.891 -2.015,-8.05 -2.015,-12.378 0,-21.57 17.487,-39.057 39.057,-39.057 3.702,0 7.285,0.516 10.679,1.479"
             style="fill:none;stroke:#000000;stroke-width:15;stroke-linecap:round;stroke-linejoin:round;stroke-miterlimit:10;stroke-dasharray:none;stroke-opacity:1"
             id="path4567" /></g><g
           id="g4569"
           transform="translate(276.3647,231.252)"><path
             d="M 0,0 C 22.477,-8.287 38.505,-29.897 38.505,-55.252"
             style="fill:none;stroke:#000000;stroke-width:15;stroke-linecap:round;stroke-linejoin:round;stroke-miterlimit:10;stroke-dasharray:none;stroke-opacity:1"
             id="path4571" /></g><g
           id="g4573"
           transform="translate(197.1304,176)"><path
             d="M 0,0 C 0,25.355 16.03,46.968 38.509,55.254"
             style="fill:none;stroke:#000000;stroke-width:15;stroke-linecap:round;stroke-linejoin:round;stroke-miterlimit:10;stroke-dasharray:none;stroke-opacity:1"
             id="path4575" /></g><g
           id="g4577"
           transform="translate(295.0566,266.8066)"><path
             d="m 0,0 c 0,-21.57 -17.486,-39.057 -39.057,-39.057 -21.57,0 -39.056,17.487 -39.056,39.057 0,21.57 17.486,39.056 39.056,39.056 C -17.486,39.056 0,21.57 0,0 Z"
             style="fill:none;stroke:#000000;stroke-width:15;stroke-linecap:round;stroke-linejoin:round;stroke-miterlimit:10;stroke-dasharray:none;stroke-opacity:1"
             id="path4579" /></g><g
           id="g4581"
           transform="translate(413.6914,348.9854)"><path
             d="m 0,0 c -31.854,53.903 -90.545,90.064 -157.691,90.064 -101.096,0 -183.05,-81.954 -183.05,-183.049 0,-101.096 81.954,-183.05 183.05,-183.05 101.095,0 183.049,81.954 183.049,183.05 0,21.859 -3.838,42.819 -10.866,62.254"
             style="fill:none;stroke:#000000;stroke-width:15;stroke-linecap:round;stroke-linejoin:round;stroke-miterlimit:10;stroke-dasharray:none;stroke-opacity:1"
             id="path4583" /></g><g
           id="g4585"
           transform="translate(179.7871,42.5371)"><path
             d="m 0,0 c 23.819,-8.506 49.472,-13.15 76.213,-13.15 125.155,0 226.614,101.458 226.614,226.613 0,125.155 -101.459,226.613 -226.614,226.613 -125.155,0 -226.614,-101.458 -226.614,-226.613 0,-86.4 48.357,-161.498 119.478,-199.728"
             style="fill:none;stroke:#000000;stroke-width:15;stroke-linecap:round;stroke-linejoin:round;stroke-miterlimit:10;stroke-dasharray:none;stroke-opacity:1"
             id="path4587" /></g><g
           id="g4589"
           transform="translate(256,504.5)"><path
             d="M 0,0 V -92.104"
             style="fill:none;stroke:#000000;stroke-width:15;stroke-linecap:round;stroke-linejoin:round;stroke-miterlimit:10;stroke-dasharray:none;stroke-opacity:1"
             id="path4591" /></g><g
           id="g4593"
           transform="translate(256,99.6045)"><path
             d="M 0,0 V -92.104"
             style="fill:none;stroke:#000000;stroke-width:15;stroke-linecap:round;stroke-linejoin:round;stroke-miterlimit:10;stroke-dasharray:none;stroke-opacity:1"
             id="path4595" /></g><g
           id="g4597"
           transform="translate(504.5,256)"><path
             d="M 0,0 H -92.104"
             style="fill:none;stroke:#000000;stroke-width:15;stroke-linecap:round;stroke-linejoin:round;stroke-miterlimit:10;stroke-dasharray:none;stroke-opacity:1"
             id="path4599" /></g><g
           id="g4601"
           transform="translate(99.6045,256)"><path
             d="M 0,0 H -92.104"
             style="fill:none;stroke:#000000;stroke-width:15;stroke-linecap:round;stroke-linejoin:round;stroke-miterlimit:10;stroke-dasharray:none;stroke-opacity:1"
             id="path4603" /></g><g
           id="g4605"
           transform="translate(393.1152,393.1152)"><path
             d="M 0,0 -21.365,-21.365"
             style="fill:none;stroke:#000000;stroke-width:15;stroke-linecap:round;stroke-linejoin:round;stroke-miterlimit:10;stroke-dasharray:none;stroke-opacity:1"
             id="path4607" /></g><g
           id="g4609"
           transform="translate(140.25,140.25)"><path
             d="M 0,0 -21.365,-21.365"
             style="fill:none;stroke:#000000;stroke-width:15;stroke-linecap:round;stroke-linejoin:round;stroke-miterlimit:10;stroke-dasharray:none;stroke-opacity:1"
             id="path4611" /></g><g
           id="g4613"
           transform="translate(393.1152,118.8848)"><path
             d="M 0,0 -21.365,21.365"
             style="fill:none;stroke:#000000;stroke-width:15;stroke-linecap:round;stroke-linejoin:round;stroke-miterlimit:10;stroke-dasharray:none;stroke-opacity:1"
             id="path4615" /></g><g
           id="g4617"
           transform="translate(140.25,371.75)"><path
             d="M 0,0 -21.365,21.365"
             style="fill:none;stroke:#000000;stroke-width:15;stroke-linecap:round;stroke-linejoin:round;stroke-miterlimit:10;stroke-dasharray:none;stroke-opacity:1"
             id="path4619" /></g></g></g></g></svg>
