<svg id="Layer_1" enable-background="new 0 0 1024 1024" viewBox="0 0 1024 1024" xmlns="http://www.w3.org/2000/svg"><g id="XMLID_3_"><g id="XMLID_1_"><g id="XMLID_21_"><path id="XMLID_25_" d="m712.7 277.3c0 5.6-.2 11.2-.6 16.8-.2 2.8-.5 5.5-.8 8.3-.2 1.7.4 5.3 0 .1.1 1.7-.5 3.8-.8 5.4-1.8 11.1-4.5 22.1-8 32.8-1.7 5.1-3.6 10.1-5.5 15-1.7 4.3 1.9-4.1-.1.1-.5 1.2-1.1 2.4-1.6 3.6-1.3 2.8-2.6 5.6-4.1 8.3-4.8 9.4-10.3 18.4-16.4 27-1.3 1.9-2.8 4.9-4.7 6.3 3.5-2.7 1.1-1.4-.1.1-.8 1-1.6 2-2.5 3-3.6 4.4-7.4 8.6-11.4 12.6-3.6 3.8-7.4 7.4-11.3 10.9-2 1.7-3.9 3.5-5.9 5.1-1 .8-2 1.7-3 2.5-.7.5-1.4 1.1-2.1 1.6 2.3-1.8 2.6-2 .9-.7-8.5 6.3-17.2 12.1-26.4 17.1-4.6 2.6-9.3 4.9-14.1 7.2-1.2.6-2.4 1.1-3.6 1.6-4.3 1.9 4.2-1.7-.1.1-2.9 1.2-5.8 2.3-8.7 3.4-10.6 3.8-21.4 6.8-32.4 9-2.7.5-5.4 1-8.1 1.4-1.2.2-2.8.7-4.1.6 4 .3 2.8-.4 1.2-.2-6 .6-12 1.2-18 1.4-11.7.4-23.2-.2-34.8-1.4-4.8-.5 4.6.7-.1 0-1.4-.2-2.7-.4-4.1-.6-2.7-.4-5.4-.9-8-1.5-5.7-1.2-11.4-2.6-17.1-4.2-5.1-1.5-10.2-3.1-15.3-5-2.1-.8-4.2-1.6-6.2-2.4-.4-.2-.8-.3-1.2-.5-2-.8-1.6-.7 1.1.5-1.3 0-3.7-1.6-4.8-2.2-10-4.6-19.6-9.9-28.8-16-2.2-1.4-4.4-2.9-6.5-4.4-1.9-1.3-4.9-2.8-6.3-4.7 2.7 3.5 1.4 1.1-.1-.1-1-.8-2-1.6-3-2.5-2.3-2-4.7-4-6.9-6-7.8-7-15-14.6-21.7-22.6-.8-1-1.7-2-2.5-3-1.2-1.5-3.7-2.8-.1-.1-1.8-1.4-3.3-4.5-4.7-6.3-3.3-4.6-6.4-9.4-9.3-14.3-2.7-4.5-5.3-9.1-7.6-13.9-1.2-2.4-2.3-4.7-3.5-7.1-.6-1.2-1.1-2.4-1.6-3.6-.9-2-.7-1.6.4 1.1-.3-.8-.7-1.6-1-2.5-4-9.9-7.3-20.2-9.8-30.6-1.3-5.3-2.4-10.6-3.2-16-.2-1.4-.4-2.7-.6-4.1-.7-4.8.5 4.7 0-.1-.3-3.2-.7-6.4-.9-9.6-.9-11.6-.8-23.3.1-34.9.2-2.8.5-5.5.8-8.3.5-4.8-.7 4.6 0-.1.2-1.4.4-2.7.6-4.1 1-5.8 2.1-11.6 3.6-17.3 2.6-10.4 6-20.6 10-30.5 1.7-4.3-1.9 4.1.1-.1.5-1.2 1.1-2.4 1.6-3.6 1.1-2.4 2.3-4.8 3.5-7.1 2.6-5.1 5.4-10.1 8.3-15 2.7-4.5 5.6-8.9 8.7-13.2 1.3-1.9 2.8-4.9 4.7-6.3-3.5 2.7-1.1 1.4.1-.1 1.1-1.4 2.2-2.7 3.3-4 6.7-8 14.1-15.5 21.9-22.5 2-1.7 3.9-3.5 5.9-5.1 1-.8 2-1.7 3-2.5 1.5-1.2 2.8-3.7.1-.1 1.4-1.8 4.5-3.3 6.3-4.7 2.5-1.8 5-3.5 7.6-5.2 9.2-6 18.9-11.3 28.9-15.8.8-.4 2.7-1.6 3.6-1.6-.8.3-1.6.7-2.3 1 .8-.3 1.6-.7 2.5-1 2.1-.8 4.1-1.6 6.2-2.4 5.4-2 11-3.8 16.6-5.4 5.2-1.5 10.5-2.7 15.8-3.8 2.7-.5 5.4-1 8-1.5 1.4-.2 2.7-.4 4.1-.6 2.2-.3 1.8-.3-1.2.2l2.7-.3c11.6-1.3 23.2-1.7 34.9-1.2 5.3.2 10.6.7 15.9 1.3 1.8.2 4.1-.4-.5-.1 1.2-.1 2.8.4 4.1.6 3.1.5 6.3 1.1 9.4 1.7 11 2.2 21.8 5.3 32.3 9.2 2.5.9 5 1.9 7.4 2.9 4.3 1.7-4.1-1.9.1.1 1.2.5 2.4 1.1 3.6 1.6 5.2 2.4 10.3 5 15.3 7.8 4.6 2.6 9.1 5.3 13.5 8.2 1.8 1.2 3.6 2.4 5.4 3.7 2.2 1.5 5.8 3.3 7.4 5.4-2.7-3.5-1.4-1.1.1.1 1 .8 2 1.6 3 2.5 2 1.7 4 3.4 5.9 5.1 4.2 3.8 8.3 7.7 12.2 11.8 3.6 3.8 7.1 7.7 10.5 11.7.8 1 1.7 2 2.5 3 1.2 1.5 3.7 2.8.1.1 2.1 1.6 3.9 5.2 5.4 7.4 6 8.6 11.5 17.7 16.2 27.1 1.2 2.4 2.3 4.7 3.5 7.1.6 1.2 1.1 2.4 1.6 3.6 1.9 4.3-1.7-4.2.1.1 2.1 5.4 4.2 10.8 5.9 16.3 3.4 10.7 6.1 21.7 7.8 32.9.2 1.2.7 2.8.6 4.1.4-5.1-.2-1.5 0 .1.3 2.8.6 5.5.8 8.3.1 5.5.3 11.1.4 16.7 0 10.5 9.2 20.5 20 20s20-8.8 20-20c-.2-49-15.1-98.2-43.7-138.2-28.9-40.4-68.7-71-115.3-88.2-46.7-17.2-99.5-18.8-147.3-5.2-46.1 13.1-88.5 40.4-119 77.4-32.1 39.1-51.3 86.3-55.3 136.7-3.9 49.2 8.4 99.8 34 142 24.7 40.7 61.9 74.5 105.5 94.1 46.8 21.1 98.5 27.1 149 17.1 47.2-9.4 91.5-34.1 124.8-68.8 33.4-34.8 56.6-79.9 64-127.7 2-13 3.3-26.1 3.3-39.2 0-10.5-9.2-20.5-20-20-10.9.5-20 8.8-20 20z"/></g></g><g id="XMLID_2_"><g id="XMLID_15_"><path id="XMLID_19_" d="m841.5 947.4c-8.6 0-17.1 0-25.7 0-22.7 0-45.5 0-68.2 0-32.5 0-65 0-97.5 0-37.9 0-75.7 0-113.6 0-38.8 0-77.5 0-116.3 0-35.3 0-70.6 0-105.8 0-27.4 0-54.7 0-82.1 0-15 0-30 0-45.1 0-1.3 0-2.6 0-3.9 0-.2 0-.5 0-.7 0-.9 0-1.9 0-2.8-.1.2 0-2.7-.1-2.7-.2-.1-.2 5.2 1 1.3.1-1.7-.4-3.5-.8-5.2-1.3-.6-.2-1.3-.6-1.9-.6-2.5-.4 3.3 1.9 1.1.5-1.3-.8-2.7-1.4-4-2.1-1.3-.8-2.5-1.7-3.8-2.5-1.9-1.1 1.6 1 1.5 1.2-.1.1-2.2-1.9-2.4-2.1-1.1-1-2.1-2.2-3.1-3.3-2.4-2.4 1.9 3.2-.4-.6-.8-1.3-1.6-2.5-2.4-3.9-.4-.8-.8-1.6-1.2-2.3-1.5-2.9.5 1.2.5 1.2-.9.1-2-8.1-2.5-9 1.4 2.6.3 3.4.2 1.3 0-.9-.1-1.8-.2-2.8 0-.5 0-1 0-1.5 0-1.1 0-2.1 0-3.2 0-32.4 0-64.8 0-97.3 0-4.5 0-8.9 0-13.4 0-10.1 1.6-20 1.8-30 0 0-.6 4.2-.3 1.9.1-.9.3-1.8.4-2.7.2-1.6.5-3.2.8-4.7.6-3.4 1.2-6.7 2-10 1.4-6.4 3.1-12.7 5-18.9 2-6.4 4.3-12.6 6.8-18.8 1.3-3.3-1.7 3.9.3-.7.6-1.4 1.3-2.8 1.9-4.2 1.4-3 2.9-6 4.4-8.9 6-11.5 13-22.3 20.7-32.8 2.1-2.8-2.4 2.9.5-.6 1-1.2 1.9-2.4 2.9-3.6 2.1-2.5 4.2-5 6.4-7.4 4.4-4.9 9-9.5 13.8-14 4.6-4.3 9.5-8.4 14.4-12.4 2.7-2.2-3 2.2.6-.5 1.2-.9 2.5-1.8 3.7-2.7 2.8-2 5.7-4 8.7-5.9 10.7-7 22-12.9 33.6-18.2 3.2-1.5-3.5 1.4.7-.3 1.4-.6 2.9-1.2 4.3-1.7 3.3-1.3 6.7-2.5 10.1-3.6 6.2-2 12.4-3.8 18.8-5.3s12.9-2.8 19.4-3.8c.7-.1 2-.5 2.7-.4.1 0-4.2.5-1.9.3 1.6-.2 3.2-.4 4.8-.5 3.7-.4 7.4-.7 11.1-.9 7.6-.4 15.3-.3 22.9-.3h84.3 114.5 77.7 5.9c9.9 0 19.7 1.6 29.5 1.8 0 0-4.2-.6-1.9-.3.9.1 1.8.3 2.7.4 1.6.2 3.2.5 4.7.8 3.4.6 6.7 1.2 10 2 6.4 1.4 12.7 3.1 18.9 5 6.4 2 12.6 4.3 18.8 6.8 3.3 1.3-3.9-1.7.7.3 1.4.6 2.8 1.3 4.2 1.9 3 1.4 6 2.9 8.9 4.4 11.5 6 22.3 13 32.8 20.7 2.8 2.1-2.9-2.4.6.5 1.2 1 2.4 1.9 3.6 2.9 2.5 2.1 5 4.2 7.4 6.4 4.9 4.4 9.5 9 14 13.8 4.3 4.6 8.4 9.5 12.4 14.4 2.2 2.7-2.2-3 .5.6.9 1.2 1.8 2.5 2.7 3.7 2 2.8 4 5.7 5.9 8.7 7 10.7 12.9 22 18.2 33.6 1.5 3.2-1.4-3.5.3.7.6 1.4 1.2 2.9 1.7 4.3 1.3 3.3 2.5 6.7 3.6 10.1 2 6.2 3.8 12.4 5.3 18.8s2.8 12.9 3.8 19.4c.1.7.5 2 .4 2.7 0 .1-.5-4.2-.3-1.9.2 1.6.4 3.2.5 4.8.4 3.7.7 7.4.9 11.1.6 11.8.3 23.6.3 35.4 0 30.5.3 61 0 91.5v1.8c0 .7-.4 6.1-.1 2.8s-.5 1.8-.7 2.6c-.1.4-1.3 5.1-1.6 5-.3 0 2-3.7.7-1.8-.3.5-.6 1.2-.9 1.8-.8 1.5-1.7 3-2.6 4.5-.3.5-.8 1-1.1 1.6-1.2 2.2 2.6-2.7.7-1-1.1 1-2 2.3-3.1 3.3-.5.5-1 .9-1.4 1.3-.2.1-.3.3-.5.4-1.3 1.1-1.3 1.1 0 .1.5-1.2 1.3-.9 0 0-.7.5-1.4 1-2.2 1.4-1.3.8-2.6 1.5-4 2.2-3.9 2.1 2.7-.7-.7.3-1.5.4-2.9.9-4.5 1.3-.7.2-1.3.3-2 .4-3.9.9 1.4-.3 1.3-.1.1.4-4.6.3-5.2.3-10.5.1-20.5 9.1-20 20 .5 10.7 8.8 20.2 20 20 36.1-.5 64.8-28.2 67.8-63.9.9-11 .2-22.3.2-33.3 0-30.4.7-60.8-.1-91.2-1.4-57.9-22.9-113.3-60.2-157.4-35.6-42.2-86.5-72.3-140.7-82.9-26.5-5.2-52.8-5-79.6-5-34.3 0-68.7 0-103 0-37.2 0-74.4 0-111.7 0-19.1 0-38.2-.5-57.3.2-57.7 2.1-112.9 24.1-156.6 61.8-41.8 36.1-71.4 87.3-81.4 141.7-6.5 35.1-4.5 71.2-4.5 106.7v49.1c0 4.4 0 8.7.5 13.1 2.1 16.9 9.5 33.2 22.8 44.3 13.4 11.2 29.3 16.9 46.8 16.9h14 61.8 95.1 113.7 119.2 109.7 87.1 49.8 6.5c10.5 0 20.5-9.2 20-20-.4-11-8.7-20.1-19.9-20.1z"/></g></g></g></svg>