<svg fill="none" height="96" viewBox="0 0 96 96" width="96" xmlns="http://www.w3.org/2000/svg" xmlns:xlink="http://www.w3.org/1999/xlink"><clipPath id="clip0_14_14746"><path d="m0 0h96v96h-96z"/></clipPath><g clip-path="url(#clip0_14_14746)" stroke="#000" stroke-width="5"><path d="m29.4555 16.2032-.7972.7972c-8.6716 8.6716-9.66 22.3951-2.3207 32.2199l18.9268 24.6601c1.2052 1.5703 3.5741 1.5635 4.7702-.0138l18.7416-24.7141c7.3771-9.8621 6.3887-23.646-2.32-32.3547l-.5946-.5946c-10.0533-10.05327-26.3528-10.05326-36.4061 0z"/><circle cx="47.5" cy="34.5" r="10"/><path d="m24.5 67.7417c-7.6486 1.9009-12.5 4.7324-12.5 7.8946 0 5.7237 15.8939 10.3637 35.5 10.3637s35.5-4.64 35.5-10.3637c0-3.1622-4.8514-5.9937-12.5-7.8946" stroke-linecap="round"/></g></svg>