<svg id="Capa_1" enable-background="new 0 0 512 512" height="512" viewBox="0 0 512 512" width="512" xmlns="http://www.w3.org/2000/svg"><path id="XMLID_413_" d="m482 0h-452c-16.542 0-30 13.458-30 30v400c0 16.542 13.458 30 30 30h196.496l28.308 28.309c3.906 3.906 10.236 3.906 14.143 0l9.564-9.564c7.458 4.12 15.314 7.375 23.489 9.736v13.519c0 5.523 4.478 10 10 10h44c5.522 0 10-4.477 10-10v-13.52c8.175-2.36 16.031-5.616 23.489-9.736l9.564 9.564c3.906 3.905 10.236 3.905 14.143 0l28.308-28.308h40.496c16.542 0 30-13.458 30-30v-115c0-5.523-4.478-10-10-10s-10 4.477-10 10v115c0 5.514-4.486 10-10 10h-40.746l-6.51-6.51c4.12-7.458 7.377-15.316 9.736-23.49h13.52c5.522 0 10-4.477 10-10v-44c0-5.523-4.478-10-10-10h-13.52c-2.359-8.174-5.616-16.032-9.736-23.49l9.564-9.564c3.905-3.905 3.905-10.237 0-14.142l-31.112-31.113c-3.904-3.905-10.234-3.905-14.143 0l-9.564 9.564c-7.458-4.12-15.314-7.375-23.489-9.736v-13.519c0-5.523-4.478-10-10-10h-44c-5.522 0-10 4.477-10 10v13.52c-8.175 2.36-16.031 5.616-23.489 9.736l-9.564-9.564c-3.906-3.905-10.236-3.905-14.143 0l-31.112 31.113c-3.905 3.905-3.905 10.236 0 14.142l9.564 9.564c-4.119 7.458-7.376 15.314-9.735 23.49h-13.521c-5.522 0-10 4.477-10 10v44c0 5.523 4.478 10 10 10h13.521c2.359 8.175 5.616 16.032 9.735 23.49l-6.51 6.51h-196.746c-5.514 0-10-4.486-10-10v-330.001h472v125c0 5.523 4.478 10 10 10s10-4.477 10-10v-195c0-16.542-13.458-30-30-30zm-250.683 390h-11.317v-24h11.317c4.719 0 8.796-3.299 9.78-7.915 2.411-11.306 6.829-21.968 13.134-31.691 2.567-3.959 2.018-9.175-1.319-12.511l-8.008-8.008 16.971-16.971 8.008 8.008c3.338 3.337 8.555 3.887 12.512 1.319 9.723-6.305 20.386-10.724 31.691-13.134 4.615-.984 7.914-5.061 7.914-9.78v-11.317h24v11.317c0 4.719 3.299 8.796 7.914 9.78 11.306 2.411 21.969 6.83 31.691 13.134 3.96 2.566 9.174 2.019 12.512-1.319l8.008-8.008 16.971 16.971-8.008 8.008c-3.337 3.336-3.887 8.552-1.319 12.511 6.306 9.725 10.725 20.388 13.134 31.691.983 4.616 5.061 7.915 9.78 7.915h11.317v24h-11.317c-4.72 0-8.797 3.299-9.78 7.915-2.409 11.303-6.828 21.966-13.134 31.691-2.567 3.959-2.018 9.175 1.319 12.511l8.008 8.008-16.971 16.971-8.008-8.008c-3.337-3.336-8.554-3.886-12.512-1.319-9.723 6.305-20.386 10.724-31.691 13.134-4.615.984-7.914 5.061-7.914 9.78v11.317h-24v-11.317c0-4.719-3.299-8.796-7.914-9.78-11.306-2.411-21.969-6.83-31.691-13.134-3.958-2.565-9.174-2.018-12.512 1.319l-8.008 8.008-16.971-16.971 8.008-8.008c3.337-3.336 3.887-8.552 1.319-12.511-6.305-9.723-10.723-20.386-13.134-31.691-.984-4.616-5.061-7.915-9.78-7.915zm-211.317-310v-50c0-5.514 4.486-10 10-10h452c5.514 0 10 4.486 10 10v50z"/><path id="XMLID_415_" d="m448 40h-216c-5.522 0-10 4.477-10 10s4.478 10 10 10h216c5.522 0 10-4.477 10-10s-4.478-10-10-10z"/><path id="XMLID_418_" d="m108 40c-2.63 0-5.21 1.07-7.07 2.93-1.861 1.86-2.93 4.44-2.93 7.07s1.069 5.21 2.93 7.07 4.44 2.93 7.07 2.93 5.21-1.07 7.069-2.93c1.861-1.86 2.931-4.44 2.931-7.07s-1.07-5.21-2.931-7.07c-1.859-1.86-4.439-2.93-7.069-2.93z"/><path id="XMLID_419_" d="m64 40c-2.63 0-5.21 1.07-7.07 2.93-1.861 1.86-2.93 4.44-2.93 7.07s1.069 5.21 2.93 7.07 4.44 2.93 7.07 2.93 5.21-1.07 7.069-2.93c1.861-1.86 2.931-4.44 2.931-7.07s-1.07-5.21-2.931-7.07c-1.859-1.86-4.439-2.93-7.069-2.93z"/><path id="XMLID_420_" d="m152 40c-2.63 0-5.21 1.07-7.07 2.93s-2.93 4.44-2.93 7.07 1.069 5.21 2.93 7.07 4.44 2.93 7.07 2.93 5.21-1.07 7.069-2.93c1.861-1.86 2.931-4.44 2.931-7.07s-1.07-5.21-2.931-7.07c-1.859-1.86-4.439-2.93-7.069-2.93z"/><path id="XMLID_1382_" d="m334 443.169c35.935 0 65.169-29.235 65.169-65.169s-29.234-65.169-65.169-65.169-65.169 29.234-65.169 65.169 29.234 65.169 65.169 65.169zm0-110.338c24.906 0 45.169 20.263 45.169 45.169s-20.263 45.169-45.169 45.169-45.169-20.262-45.169-45.169 20.263-45.169 45.169-45.169z"/><path id="XMLID_1455_" d="m288.464 170.017h23.799c5.522 0 10-4.477 10-10s-4.478-10-10-10h-23.799c-5.522 0-10 4.477-10 10s4.477 10 10 10z"/><path id="XMLID_1456_" d="m448 150.017h-86.5c-5.522 0-10 4.477-10 10s4.478 10 10 10h86.5c5.522 0 10-4.477 10-10s-4.478-10-10-10z"/><path id="XMLID_1458_" d="m288.464 218.015h101.633c5.522 0 10-4.477 10-10s-4.478-10-10-10h-101.633c-5.522 0-10 4.477-10 10s4.477 10 10 10z"/><path id="XMLID_1459_" d="m448 198.015h-16.718c-5.522 0-10 4.477-10 10s4.478 10 10 10h16.718c5.522 0 10-4.477 10-10s-4.478-10-10-10z"/><path id="XMLID_1461_" d="m64 366h.042c5.522 0 9.979-4.477 9.979-10s-4.499-10-10.021-10-10 4.477-10 10 4.478 10 10 10z"/><path id="XMLID_1462_" d="m168.305 356c0-5.523-4.478-10-10-10h-49.258c-5.522 0-10 4.477-10 10s4.478 10 10 10h49.258c5.522 0 10-4.477 10-10z"/><path id="XMLID_1496_" d="m64 414h59.667c5.522 0 10-4.477 10-10s-4.478-10-10-10h-59.667c-5.522 0-10 4.477-10 10s4.478 10 10 10z"/><path id="XMLID_1677_" d="m226.847 186.413-22.271-38.576c-2.761-4.782-8.873-6.42-13.66-3.661l-10.402 6.005c-4.367-3.166-9.024-5.859-13.936-8.06v-11.997c0-5.523-4.478-10-10-10h-44.545c-5.522 0-10 4.477-10 10v11.997c-4.91 2.2-9.568 4.894-13.937 8.06l-10.401-6.005c-4.785-2.761-10.898-1.123-13.66 3.66l-22.272 38.576c-1.326 2.297-1.686 5.026-.999 7.588s2.362 4.746 4.659 6.072l10.406 6.008c-.272 2.673-.409 5.361-.409 8.043s.137 5.371.409 8.043l-10.406 6.008c-2.297 1.326-3.973 3.51-4.659 6.072-.687 2.562-.327 5.292.999 7.588l22.272 38.576c2.762 4.784 8.878 6.422 13.66 3.66l10.401-6.005c4.368 3.167 9.026 5.86 13.937 8.06v11.997c0 5.523 4.478 10 10 10h44.545c5.522 0 10-4.477 10-10v-11.997c4.911-2.2 9.568-4.894 13.936-8.06l10.402 6.005c4.785 2.761 10.9 1.122 13.66-3.661l22.271-38.576c2.762-4.783 1.123-10.898-3.66-13.66l-10.405-6.008c.272-2.673.409-5.361.409-8.043s-.137-5.371-.409-8.043l10.405-6.008c4.783-2.759 6.421-8.875 3.66-13.658zm-34.759 16.323c.731 3.74 1.103 7.572 1.103 11.389s-.371 7.649-1.103 11.389c-.821 4.193 1.113 8.444 4.813 10.581l7.625 4.403-12.271 21.256-7.636-4.408c-3.706-2.138-8.359-1.684-11.582 1.132-5.809 5.078-12.435 8.91-19.692 11.389-4.047 1.382-6.768 5.186-6.768 9.463v8.796h-24.545v-8.796c0-4.277-2.721-8.081-6.769-9.463-7.256-2.478-13.882-6.31-19.693-11.389-3.221-2.815-7.875-3.27-11.581-1.131l-7.635 4.408-12.272-21.256 7.626-4.403c3.7-2.136 5.635-6.388 4.813-10.581-.731-3.74-1.103-7.572-1.103-11.389s.371-7.649 1.103-11.389c.821-4.193-1.113-8.444-4.813-10.581l-7.626-4.403 12.272-21.256 7.635 4.408c3.706 2.14 8.36 1.685 11.581-1.131 5.812-5.079 12.438-8.911 19.693-11.389 4.048-1.382 6.769-5.186 6.769-9.463v-8.796h24.545v8.796c0 4.277 2.721 8.081 6.768 9.463 7.258 2.479 13.884 6.311 19.692 11.389 3.223 2.814 7.875 3.27 11.582 1.132l7.636-4.408 12.271 21.256-7.625 4.403c-3.7 2.135-5.634 6.386-4.813 10.579z"/><path id="XMLID_1680_" d="m134.305 180.125c-18.748 0-34 15.252-34 34s15.252 34 34 34 34-15.252 34-34-15.252-34-34-34zm0 48c-7.72 0-14-6.28-14-14s6.28-14 14-14 14 6.28 14 14-6.281 14-14 14z"/><path id="XMLID_1684_" d="m502 260c-2.63 0-5.21 1.07-7.07 2.93s-2.93 4.44-2.93 7.07 1.069 5.21 2.93 7.07 4.44 2.93 7.07 2.93 5.21-1.07 7.069-2.93c1.86-1.86 2.931-4.44 2.931-7.07s-1.07-5.21-2.931-7.07c-1.859-1.86-4.439-2.93-7.069-2.93z"/></svg>