<?xml version="1.0" encoding="UTF-8"?>
<svg xmlns="http://www.w3.org/2000/svg" id="Line" viewBox="0 0 64 64" width="512" height="512"><path d="M32,60A27.99986,27.99986,0,0,0,56.77344,18.95117a1,1,0,0,0-1.7666.9375A25.92558,25.92558,0,0,1,58,32C56.575,66.4871,7.42474,66.48747,6,31.9998,5.75918,12.71818,27.20024-.20566,44.11151,8.99351a1.00009,1.00009,0,0,0,.93732-1.767A27.9303,27.9303,0,0,0,32,4C-5.14043,5.53456-5.14,58.46613,32,60Z"/><path d="M32,24a7.7947,7.7947,0,0,1,2.54443.42529,1,1,0,0,0,1.271-.61963c.43933-1.769-2.67525-1.69841-3.81535-1.8058-13.26477.54823-13.26418,19.4525,0,20.00016A10.01116,10.01116,0,0,0,42,32c-.10213-1.1608-.03452-4.24291-1.79578-3.80525a.99934.99934,0,0,0-.61975,1.27107A7.76038,7.76038,0,0,1,40,32c-.401,10.59667-15.59908,10.59705-16-.0001A8.00916,8.00916,0,0,1,32,24Z"/><path d="M41.57471,16.73486a.99971.99971,0,0,0-.38965-1.35937A18.99066,18.99066,0,0,0,32,13c-25.20241,1.04163-25.20208,36.95886.00014,38a18.98878,18.98878,0,0,0,16.62437-28.1851.99993.99993,0,1,0-1.749.96973C53.214,34.77746,44.69911,49.22016,31.99973,48.99981A17.01867,17.01867,0,0,1,15,32c-.21781-12.699,14.22106-21.21492,25.21549-14.8752A.998.998,0,0,0,41.57471,16.73486Z"/><path d="M43.52393,13.89844l.36724,4.79632L31.293,31.293a1.0001,1.0001,0,0,0,1.41411,1.414L45.30524,20.10883l4.79632.36724a.9994.9994,0,0,0,.78321-.29l7.27832-7.27783a1.00679,1.00679,0,0,0-.63091-1.70408l-4.39937-.33693L52.7959,6.46777A1.007,1.007,0,0,0,51.09178,5.837L43.814,13.11523A.99833.99833,0,0,0,43.52393,13.89844Zm7.44384-5.10938c.40021,4.657-.38739,3.83722,4.24321,4.24313L49.7959,18.44678,45.855,18.145l-.30176-3.94092Z"/></svg>
