<svg version="1.1" id="Capa_1" xmlns="http://www.w3.org/2000/svg" xmlns:xlink="http://www.w3.org/1999/xlink" x="0px" y="0px" viewBox="0 0 512 512" style="enable-background:new 0 0 512 512;" xml:space="preserve">
<g>
	<path style="fill:none;stroke:#000000;stroke-width:15;stroke-linecap:round;stroke-linejoin:round;stroke-miterlimit:10;" d="&#10;&#9;&#9;M236.377,124.992L47.133,291.347c-5.6,4.923-6.149,13.453-1.226,19.053c3.236,3.682,8.032,5.18,12.529,4.376&#10;&#9;&#9;c2.343-0.419,4.605-1.463,6.523-3.149L332.18,76.725l-0.104,2.961c-0.364,7.447,5.378,13.779,12.825,14.143&#10;&#9;&#9;c1.043,0.051,2.062-0.018,3.048-0.194c6.054-1.083,10.782-6.227,11.095-12.631l1.682-35.25c0.364-7.447-5.378-13.779-12.825-14.143&#10;&#9;&#9;l-35.474-1.909c-7.45-0.365-13.779,5.378-14.143,12.825s5.378,13.779,12.825,14.143l2.644,0.304l-50.938,44.777"/>
	<path style="fill:none;stroke:#000000;stroke-width:15;stroke-linecap:round;stroke-linejoin:round;stroke-miterlimit:10;" d="&#10;&#9;&#9;M431.74,100.302l13.633-12.599c2.887-2.668,7.548-0.423,7.263,3.497l-1.35,18.515l18.351,2.804&#10;&#9;&#9;c3.885,0.594,5.037,5.638,1.794,7.859l-15.317,10.488l9.25,16.095c1.958,3.408-1.268,7.453-5.026,6.302l-17.75-5.436l-6.817,17.267&#10;&#9;&#9;c-1.443,3.656-6.617,3.656-8.061,0l-6.817-17.267l-17.75,5.436c-3.758,1.151-6.984-2.894-5.026-6.302l9.25-16.095l-15.317-10.488&#10;&#9;&#9;c-3.243-2.221-2.092-7.265,1.794-7.859l18.351-2.804l-1.35-18.515c-0.286-3.92,4.376-6.165,7.263-3.497L431.74,100.302z"/>
	<path style="fill:none;stroke:#000000;stroke-width:15;stroke-linecap:round;stroke-linejoin:round;stroke-miterlimit:10;" d="&#10;&#9;&#9;M47.816,399.175h60.896c8.343,0,15.107,6.764,15.107,15.107v68.031H32.709v-68.031C32.709,405.939,39.473,399.175,47.816,399.175z"/>
	<path style="fill:none;stroke:#000000;stroke-width:15;stroke-linecap:round;stroke-linejoin:round;stroke-miterlimit:10;" d="&#10;&#9;&#9;M214.115,334.707h13.091c8.343,0,15.107,6.763,15.107,15.107v132.499H150.9V349.813c0-8.343,6.764-15.107,15.107-15.107h13.064"/>
	<path style="fill:none;stroke:#000000;stroke-width:15;stroke-linecap:round;stroke-linejoin:round;stroke-miterlimit:10;" d="&#10;&#9;&#9;M360.8,436.694v45.62h-91.41v-193.9c0-8.34,6.77-15.11,15.11-15.11h61.19c8.34,0,15.11,6.77,15.11,15.11v41.96"/>
	<path style="fill:none;stroke:#000000;stroke-width:15;stroke-linecap:round;stroke-linejoin:round;stroke-miterlimit:10;" d="&#10;&#9;&#9;M387.89,436.454v45.86h91.4v-264.64c0-8.34-6.76-15.1-15.11-15.1H403c-8.35,0-15.11,6.76-15.11,15.1v112.94"/>
	
		<line style="fill:none;stroke:#000000;stroke-width:15;stroke-linecap:round;stroke-linejoin:round;stroke-miterlimit:10;" x1="7.5" y1="482.313" x2="504.5" y2="482.313"/>
	<g>
		
			<circle style="fill:none;stroke:#000000;stroke-width:15;stroke-linecap:round;stroke-linejoin:round;stroke-miterlimit:10;" cx="373.866" cy="383.535" r="54.729"/>
		
			<polyline style="fill:none;stroke:#000000;stroke-width:15;stroke-linecap:round;stroke-linejoin:round;stroke-miterlimit:10;" points="&#10;&#9;&#9;&#9;372.856,364.77 372.856,388.627 389.486,383.535 &#9;&#9;"/>
	</g>
</g>
<g>
</g>
<g>
</g>
<g>
</g>
<g>
</g>
<g>
</g>
<g>
</g>
<g>
</g>
<g>
</g>
<g>
</g>
<g>
</g>
<g>
</g>
<g>
</g>
<g>
</g>
<g>
</g>
<g>
</g>
</svg>